Nobile-KM.ufo
<glyph name="numbersign" format="1">
  <advance width="996"></advance>
  <unicode hex="0023"></unicode>
  <outline>
    <contour>
      <point x="203" y="295" type="line"></point>
      <point x="344" y="295" type="line"></point>
      <point x="377" y="561" type="line"></point>
      <point x="563" y="561" type="line"></point>
      <point x="531" y="295" type="line"></point>
      <point x="672" y="295" type="line"></point>
      <point x="703" y="561" type="line"></point>
      <point x="891" y="561" type="line"></point>
      <point x="891" y="684" type="line"></point>
      <point x="715" y="684" type="line"></point>
      <point x="742" y="905" type="line"></point>
      <point x="914" y="905" type="line"></point>
      <point x="914" y="1030" type="line"></point>
      <point x="754" y="1030" type="line"></point>
      <point x="785" y="1307" type="line"></point>
      <point x="643" y="1307" type="line"></point>
      <point x="615" y="1030" type="line"></point>
      <point x="426" y="1030" type="line"></point>
      <point x="457" y="1309" type="line"></point>
      <point x="318" y="1309" type="line"></point>
      <point x="287" y="1030" type="line"></point>
      <point x="98" y="1030" type="line"></point>
      <point x="98" y="905" type="line"></point>
      <point x="273" y="905" type="line"></point>
      <point x="246" y="684" type="line"></point>
      <point x="70" y="684" type="line"></point>
      <point x="70" y="561" type="line"></point>
      <point x="236" y="561" type="line"></point>
    </contour>
    <contour>
      <point x="389" y="684" type="line"></point>
      <point x="416" y="905" type="line"></point>
      <point x="598" y="905" type="line"></point>
      <point x="572" y="684" type="line"></point>
    </contour>
  </outline>
</glyph>
<glyph name="dollar" format="1">
  <advance width="1019"/>
  <unicode hex="0024"/>
  <outline>
    <contour>
      <point x="473" y="-178" type="line"/>
      <point x="576" y="-178" type="line"/>
      <point x="576" y="-18" type="line"/>
      <point x="793" y="0"/>
      <point x="962" y="101"/>
      <point x="962" y="340" type="curve" smooth="yes"/>
      <point x="962.0" y="527.664252043"/>
      <point x="827.182432528" y="613.707222072"/>
      <point x="675.205598077" y="673.40791751" type="curve" smooth="yes"/>
      <point x="642.540350311" y="686.239728459"/>
      <point x="609.082389772" y="697.854595959"/>
      <point x="576" y="709" type="curve"/>
      <point x="576" y="1098" type="line"/>
      <point x="670" y="1092"/>
      <point x="767" y="1077"/>
      <point x="855" y="1040" type="curve"/>
      <point x="907" y="1171" type="line"/>
      <point x="907" y="1171"/>
      <point x="668.446820487" y="1233.8989359"/>
      <point x="576" y="1236" type="curve"/>
      <point x="576" y="1390" type="line"/>
      <point x="473" y="1390" type="line"/>
      <point x="473" y="1240" type="line"/>
      <point x="285" y="1234"/>
      <point x="60" y="1156"/>
      <point x="60" y="929" type="curve" smooth="yes"/>
      <point x="60.0" y="738.343034029"/>
      <point x="163.006986913" y="661.045515968"/>
      <point x="300.497666416" y="615.549829202" type="curve" smooth="yes"/>
      <point x="354.109524828" y="597.809657097"/>
      <point x="412.964493275" y="584.904828548"/>
      <point x="473" y="572" type="curve"/>
      <point x="473" y="129" type="line"/>
      <point x="365" y="142"/>
      <point x="274" y="169"/>
      <point x="173" y="207" type="curve"/>
      <point x="124" y="63" type="line"/>
      <point x="244" y="23"/>
      <point x="347" y="-11"/>
      <point x="473" y="-20" type="curve"/>
    </contour>
    <contour>
      <point x="473" y="745" type="line"/>
      <point x="380" y="759"/>
      <point x="223" y="805"/>
      <point x="223" y="924" type="curve" smooth="yes"/>
      <point x="223" y="1078"/>
      <point x="348" y="1100"/>
      <point x="473" y="1100" type="curve"/>
    </contour>
    <contour>
      <point x="576" y="134" type="curve"/>
      <point x="576" y="539" type="line"/>
      <point x="679" y="498"/>
      <point x="797" y="464"/>
      <point x="797" y="329" type="curve" smooth="yes"/>
      <point x="797" y="204"/>
      <point x="692" y="137"/>
    </contour>
  </outline>
</glyph>
<glyph name="percent" format="1">
  <advance width="1848"></advance>
  <unicode hex="0025"></unicode>
  <outline>
    <contour>
      <point x="455" y="788" type="curve" smooth="yes"></point>
      <point x="289" y="788"></point>
      <point x="267" y="962"></point>
      <point x="267" y="1092" type="curve" smooth="yes"></point>
      <point x="267" y="1219"></point>
      <point x="293" y="1391"></point>
      <point x="455" y="1391" type="curve" smooth="yes"></point>
      <point x="617" y="1391"></point>
      <point x="643" y="1219"></point>
      <point x="643" y="1092" type="curve" smooth="yes"></point>
      <point x="643" y="962"></point>
      <point x="621" y="788"></point>
    </contour>
    <contour>
      <point x="455" y="678" type="curve" smooth="yes"></point>
      <point x="682" y="678"></point>
      <point x="776" y="870"></point>
      <point x="776" y="1071" type="curve" smooth="yes"></point>
      <point x="776" y="1288"></point>
      <point x="706" y="1495"></point>
      <point x="455" y="1495" type="curve" smooth="yes"></point>
      <point x="204" y="1495"></point>
      <point x="134" y="1288"></point>
      <point x="134" y="1071" type="curve" smooth="yes"></point>
      <point x="134" y="871"></point>
      <point x="229" y="678"></point>
    </contour>
    <contour>
      <point x="630" y="-22" type="line"></point>
      <point x="1311" y="1430" type="line"></point>
      <point x="1182" y="1497" type="line"></point>
      <point x="500" y="37" type="line"></point>
    </contour>
    <contour>
      <point x="1366" y="89" type="curve" smooth="yes"></point>
      <point x="1200" y="89"></point>
      <point x="1178" y="263"></point>
      <point x="1178" y="393" type="curve" smooth="yes"></point>
      <point x="1178" y="520"></point>
      <point x="1204" y="692"></point>
      <point x="1366" y="692" type="curve" smooth="yes"></point>
      <point x="1528" y="692"></point>
      <point x="1554" y="520"></point>
      <point x="1554" y="393" type="curve" smooth="yes"></point>
      <point x="1554" y="263"></point>
      <point x="1532" y="89"></point>
    </contour>
    <contour>
      <point x="1366" y="-21" type="curve" smooth="yes"></point>
      <point x="1593" y="-21"></point>
      <point x="1687" y="171"></point>
      <point x="1687" y="372" type="curve" smooth="yes"></point>
      <point x="1687" y="589"></point>
      <point x="1617" y="796"></point>
      <point x="1366" y="796" type="curve" smooth="yes"></point>
      <point x="1115" y="796"></point>
      <point x="1045" y="589"></point>
      <point x="1045" y="372" type="curve" smooth="yes"></point>
      <point x="1045" y="172"></point>
      <point x="1140" y="-21"></point>
    </contour>
  </outline>
</glyph>
<glyph name="ampersand" format="1">
  <advance width="1548"></advance>
  <unicode hex="0026"></unicode>
  <outline>
    <contour>
      <point x="1431" y="-7" type="line"></point>
      <point x="1517" y="95" type="line"></point>
      <point x="1291" y="277" type="line"></point>
      <point x="1324" y="446"></point>
      <point x="1338" y="624"></point>
      <point x="1338" y="796" type="curve"></point>
      <point x="1174" y="796" type="line"></point>
      <point x="1174" y="661"></point>
      <point x="1169" y="526"></point>
      <point x="1160" y="391" type="curve"></point>
      <point x="665" y="781" type="line"></point>
      <point x="841" y="836"></point>
      <point x="1024" y="899"></point>
      <point x="1024" y="1115" type="curve" smooth="yes"></point>
      <point x="1024" y="1346"></point>
      <point x="831" y="1445"></point>
      <point x="623" y="1445" type="curve" smooth="yes"></point>
      <point x="414" y="1445"></point>
      <point x="224" y="1345"></point>
      <point x="224" y="1113" type="curve" smooth="yes"></point>
      <point x="224" y="1001"></point>
      <point x="335" y="879"></point>
      <point x="426" y="822" type="curve"></point>
      <point x="212" y="761"></point>
      <point x="92" y="621"></point>
      <point x="92" y="396" type="curve" smooth="yes"></point>
      <point x="92" y="75"></point>
      <point x="381" y="-39"></point>
      <point x="659" y="-39" type="curve" smooth="yes"></point>
      <point x="825" y="-39"></point>
      <point x="1133" y="6"></point>
      <point x="1220" y="170" type="curve"></point>
    </contour>
    <contour>
      <point x="575" y="883" type="curve"></point>
      <point x="495" y="925"></point>
      <point x="390" y="1026"></point>
      <point x="390" y="1121" type="curve" smooth="yes"></point>
      <point x="390" y="1269"></point>
      <point x="493" y="1310"></point>
      <point x="623" y="1310" type="curve" smooth="yes"></point>
      <point x="746" y="1310"></point>
      <point x="864" y="1258"></point>
      <point x="864" y="1119" type="curve" smooth="yes"></point>
      <point x="864" y="953"></point>
      <point x="707" y="922"></point>
    </contour>
    <contour>
      <point x="659" y="100" type="curve" smooth="yes"></point>
      <point x="426" y="100"></point>
      <point x="274" y="161"></point>
      <point x="274" y="418" type="curve" smooth="yes"></point>
      <point x="274" y="585"></point>
      <point x="356" y="691"></point>
      <point x="520" y="726" type="curve"></point>
      <point x="1108" y="256" type="line"></point>
      <point x="1020" y="118"></point>
      <point x="805" y="100"></point>
    </contour>
  </outline>
</glyph>
<glyph name="quotesingle" format="1">
  <advance width="624"></advance>
  <unicode hex="0027"></unicode>
  <outline>
    <contour>
      <point x="257" y="1058" type="line"></point>
      <point x="365" y="1058" type="line"></point>
      <point x="425" y="1508" type="line" smooth="yes"></point>
      <point x="428" y="1529"></point>
      <point x="425" y="1557"></point>
      <point x="425" y="1579" type="curve"></point>
      <point x="197" y="1579" type="line"></point>
      <point x="197" y="1557"></point>
      <point x="194" y="1529"></point>
      <point x="197" y="1508" type="curve" smooth="yes"></point>
    </contour>
  </outline>
</glyph>
<glyph name="asterisk" format="1">
  <advance width="924"></advance>
  <unicode hex="002A"></unicode>
  <outline>
    <contour>
      <point x="612" y="815" type="line"></point>
      <point x="714" y="872" type="line"></point>
      <point x="544" y="1145" type="line"></point>
      <point x="853" y="1145" type="line"></point>
      <point x="853" y="1237" type="line"></point>
      <point x="542" y="1237" type="line"></point>
      <point x="700" y="1509" type="line"></point>
      <point x="597" y="1567" type="line"></point>
      <point x="458" y="1292" type="line"></point>
      <point x="319" y="1567" type="line"></point>
      <point x="216" y="1509" type="line"></point>
      <point x="374" y="1237" type="line"></point>
      <point x="63" y="1237" type="line"></point>
      <point x="63" y="1145" type="line"></point>
      <point x="372" y="1145" type="line"></point>
      <point x="202" y="872" type="line"></point>
      <point x="304" y="815" type="line"></point>
      <point x="458" y="1090" type="line"></point>
    </contour>
  </outline>
</glyph>
<glyph name="plus" format="1">
  <advance width="1068"></advance>
  <unicode hex="002B"></unicode>
  <outline>
    <contour>
      <point x="459" y="174" type="line"></point>
      <point x="600" y="174" type="line"></point>
      <point x="600" y="518" type="line"></point>
      <point x="914" y="518" type="line"></point>
      <point x="914" y="651" type="line"></point>
      <point x="600" y="651" type="line"></point>
      <point x="600" y="995" type="line"></point>
      <point x="459" y="995" type="line"></point>
      <point x="459" y="651" type="line"></point>
      <point x="146" y="651" type="line"></point>
      <point x="146" y="518" type="line"></point>
      <point x="459" y="518" type="line"></point>
    </contour>
  </outline>
</glyph>
<glyph name="one" format="1">
  <advance width="828"></advance>
  <unicode hex="0031"></unicode>
  <outline>
    <contour>
      <point x="440" y="0" type="line"></point>
      <point x="627" y="0" type="line"></point>
      <point x="627" y="1202" type="line"></point>
      <point x="437" y="1202" type="line"></point>
      <point x="180" y="1083" type="line"></point>
      <point x="233" y="957" type="line"></point>
      <point x="440" y="1057" type="line"></point>
    </contour>
  </outline>
</glyph>
<glyph name="two" format="1">
  <advance width="1054"/>
  <unicode hex="0032"/>
  <outline>
    <contour>
      <point x="118" y="0" type="line"/>
      <point x="933" y="0" type="line"/>
      <point x="933" y="152" type="line"/>
      <point x="337" y="152" type="line"/>
      <point x="414.328125" y="214.3359375"/>
      <point x="523.409851074" y="289.124267578"/>
      <point x="627.153100252" y="375.075365007" type="curve" smooth="yes"/>
      <point x="786.363037109" y="506.980514526"/>
      <point x="933.0" y="665.17578125"/>
      <point x="933" y="845" type="curve" smooth="yes"/>
      <point x="933" y="1098"/>
      <point x="751" y="1198"/>
      <point x="517" y="1198" type="curve" smooth="yes"/>
      <point x="396" y="1198"/>
      <point x="277" y="1178"/>
      <point x="177" y="1108" type="curve"/>
      <point x="230" y="992" type="line"/>
      <point x="308" y="1030"/>
      <point x="408" y="1059"/>
      <point x="495" y="1059" type="curve" smooth="yes"/>
      <point x="635" y="1059"/>
      <point x="771" y="1007"/>
      <point x="771" y="846" type="curve" smooth="yes"/>
      <point x="771" y="682"/>
      <point x="644" y="577"/>
      <point x="526" y="480" type="curve" smooth="yes"/>
      <point x="118" y="146" type="line"/>
    </contour>
  </outline>
</glyph>
<glyph name="four" format="1">
  <advance width="1200"></advance>
  <unicode hex="0034"></unicode>
  <outline>
    <contour>
      <point x="781" y="-260" type="line"></point>
      <point x="952" y="-260" type="line"></point>
      <point x="952" y="68" type="line"></point>
      <point x="1138" y="68" type="line"></point>
      <point x="1138" y="207" type="line"></point>
      <point x="952" y="207" type="line"></point>
      <point x="952" y="1169" type="line"></point>
      <point x="790" y="1208" type="line"></point>
      <point x="106" y="205" type="line"></point>
      <point x="134" y="68" type="line"></point>
      <point x="781" y="68" type="line"></point>
    </contour>
    <contour>
      <point x="291" y="205" type="line"></point>
      <point x="781" y="930" type="line"></point>
      <point x="781" y="205" type="line"></point>
    </contour>
  </outline>
</glyph>
<glyph name="five" format="1">
  <advance width="1200"></advance>
  <unicode hex="0035"></unicode>
  <outline>
    <contour>
      <point x="549" y="-207" type="curve" smooth="yes"></point>
      <point x="833" y="-207"></point>
      <point x="1040" y="-49"></point>
      <point x="1040" y="248" type="curve" smooth="yes"></point>
      <point x="1040" y="518"></point>
      <point x="858" y="698"></point>
      <point x="589" y="698" type="curve" smooth="yes"></point>
      <point x="519" y="698"></point>
      <point x="400" y="679"></point>
      <point x="349" y="622" type="curve"></point>
      <point x="349" y="1018" type="line"></point>
      <point x="952" y="1018" type="line"></point>
      <point x="952" y="1169" type="line"></point>
      <point x="204" y="1169" type="line"></point>
      <point x="204" y="537" type="line"></point>
      <point x="272" y="468" type="line"></point>
      <point x="358" y="510"></point>
      <point x="473" y="562"></point>
      <point x="571" y="562" type="curve" smooth="yes"></point>
      <point x="770" y="562"></point>
      <point x="868" y="435"></point>
      <point x="868" y="244" type="curve" smooth="yes"></point>
      <point x="868" y="36"></point>
      <point x="752" y="-56"></point>
      <point x="551" y="-56" type="curve" smooth="yes"></point>
      <point x="441" y="-56"></point>
      <point x="317" y="-19"></point>
      <point x="219" y="31" type="curve"></point>
      <point x="168" y="-114" type="line"></point>
      <point x="296" y="-165"></point>
      <point x="407" y="-207"></point>
    </contour>
  </outline>
</glyph>
<glyph name="six" format="1">
  <advance width="1308"></advance>
  <unicode hex="0036"></unicode>
  <outline>
    <contour>
      <point x="652" y="-156" type="curve" smooth="yes"></point>
      <point x="947" y="-156"></point>
      <point x="1152" y="38"></point>
      <point x="1152" y="335" type="curve" smooth="yes"></point>
      <point x="1152" y="612"></point>
      <point x="961" y="793"></point>
      <point x="686" y="793" type="curve" smooth="yes"></point>
      <point x="555" y="793"></point>
      <point x="431" y="752"></point>
      <point x="345" y="649" type="curve"></point>
      <point x="397" y="931"></point>
      <point x="635" y="1117"></point>
      <point x="905" y="1174" type="curve"></point>
      <point x="862" y="1319" type="line"></point>
      <point x="424" y="1216"></point>
      <point x="147" y="878"></point>
      <point x="147" y="425" type="curve" smooth="yes"></point>
      <point x="147" y="99"></point>
      <point x="299" y="-156"></point>
    </contour>
    <contour>
      <point x="652" y="-14" type="curve" smooth="yes"></point>
      <point x="402" y="-14"></point>
      <point x="325" y="184"></point>
      <point x="325" y="401" type="curve" smooth="yes"></point>
      <point x="325" y="442"></point>
      <point x="325" y="483"></point>
      <point x="331" y="523" type="curve"></point>
      <point x="400" y="600"></point>
      <point x="586" y="657"></point>
      <point x="686" y="657" type="curve" smooth="yes"></point>
      <point x="877" y="657"></point>
      <point x="976" y="516"></point>
      <point x="976" y="335" type="curve" smooth="yes"></point>
      <point x="976" y="138"></point>
      <point x="859" y="-14"></point>
    </contour>
  </outline>
</glyph>
<glyph name="at" format="1">
  <advance width="1873"/>
  <unicode hex="0040"/>
  <outline>
    <contour>
      <point x="925" y="-26" type="curve" smooth="yes"/>
      <point x="1047" y="-26"/>
      <point x="1244" y="10"/>
      <point x="1363" y="53" type="curve"/>
      <point x="1320" y="180" type="line"/>
      <point x="1223" y="139"/>
      <point x="1063" y="101"/>
      <point x="938" y="101" type="curve" smooth="yes"/>
      <point x="550" y="101"/>
      <point x="247" y="321"/>
      <point x="256" y="740" type="curve" smooth="yes"/>
      <point x="266" y="1166"/>
      <point x="544" y="1459"/>
      <point x="983" y="1459" type="curve" smooth="yes"/>
      <point x="1348" y="1459"/>
      <point x="1615" y="1287"/>
      <point x="1615" y="887" type="curve" smooth="yes"/>
      <point x="1615" y="665"/>
      <point x="1497" y="440"/>
      <point x="1398" y="440" type="curve" smooth="yes"/>
      <point x="1369" y="440"/>
      <point x="1342" y="465"/>
      <point x="1345" y="515" type="curve"/>
      <point x="1386" y="1118" type="line"/>
      <point x="1394" y="1198"/>
      <point x="1306" y="1258"/>
      <point x="1060" y="1257" type="curve" smooth="yes"/>
      <point x="773" y="1256"/>
      <point x="503" y="1048"/>
      <point x="472" y="717" type="curve" smooth="yes"/>
      <point x="450" y="488"/>
      <point x="560" y="327"/>
      <point x="798" y="328" type="curve" smooth="yes"/>
      <point x="1011" y="329"/>
      <point x="1178" y="484"/>
      <point x="1243" y="738" type="curve"/>
      <point x="1243" y="690"/>
      <point x="1241" y="543"/>
      <point x="1241" y="488" type="curve" smooth="yes"/>
      <point x="1241" y="383"/>
      <point x="1291" y="328"/>
      <point x="1380" y="328" type="curve" smooth="yes"/>
      <point x="1560" y="328"/>
      <point x="1750" y="555"/>
      <point x="1750" y="886" type="curve" smooth="yes"/>
      <point x="1750" y="1360"/>
      <point x="1414" y="1585"/>
      <point x="978" y="1585" type="curve" smooth="yes"/>
      <point x="477" y="1585"/>
      <point x="118" y="1234"/>
      <point x="107" y="740" type="curve" smooth="yes"/>
      <point x="96" y="240"/>
      <point x="457" y="-26"/>
    </contour>
    <contour>
      <point x="821" y="449" type="curve" smooth="yes"/>
      <point x="663" y="448"/>
      <point x="599" y="566"/>
      <point x="614" y="717" type="curve" smooth="yes"/>
      <point x="637" y="958"/>
      <point x="822" y="1150"/>
      <point x="1065" y="1150" type="curve" smooth="yes"/>
      <point x="1124" y="1151"/>
      <point x="1184" y="1145"/>
      <point x="1240" y="1133" type="curve"/>
      <point x="1213" y="880"/>
      <point x="1161" y="450"/>
    </contour>
  </outline>
</glyph>
<glyph name="B" format="1">
  <advance width="1440"></advance>
  <unicode hex="0042"></unicode>
  <outline>
    <contour>
      <point x="182" y="0" type="line"></point>
      <point x="602" y="0" type="line" smooth="yes"></point>
      <point x="903" y="0"></point>
      <point x="1302" y="46"></point>
      <point x="1302" y="434" type="curve" smooth="yes"></point>
      <point x="1302" y="699"></point>
      <point x="1142" y="829"></point>
      <point x="886" y="858" type="curve"></point>
      <point x="1088" y="888"></point>
      <point x="1220" y="976"></point>
      <point x="1220" y="1188" type="curve" smooth="yes"></point>
      <point x="1220" y="1570"></point>
      <point x="842" y="1579"></point>
      <point x="543" y="1579" type="curve" smooth="yes"></point>
      <point x="182" y="1579" type="line"></point>
    </contour>
    <contour>
      <point x="376" y="143" type="line"></point>
      <point x="376" y="784" type="line"></point>
      <point x="639" y="784" type="line" smooth="yes"></point>
      <point x="877" y="784"></point>
      <point x="1120" y="759"></point>
      <point x="1120" y="466" type="curve" smooth="yes"></point>
      <point x="1120" y="152"></point>
      <point x="851" y="143"></point>
      <point x="602" y="143" type="curve" smooth="yes"></point>
    </contour>
    <contour>
      <point x="376" y="913" type="line"></point>
      <point x="376" y="1436" type="line"></point>
      <point x="547" y="1436" type="line" smooth="yes"></point>
      <point x="737" y="1436"></point>
      <point x="1055" y="1450"></point>
      <point x="1055" y="1188" type="curve" smooth="yes"></point>
      <point x="1055" y="935"></point>
      <point x="842" y="913"></point>
      <point x="635" y="913" type="curve" smooth="yes"></point>
    </contour>
  </outline>
</glyph>
<glyph name="C" format="1">
  <advance width="1392"></advance>
  <unicode hex="0043"></unicode>
  <outline>
    <contour>
      <point x="838" y="-20" type="curve" smooth="yes"></point>
      <point x="1006" y="-20"></point>
      <point x="1148" y="34"></point>
      <point x="1271" y="110" type="curve"></point>
      <point x="1208" y="241" type="line"></point>
      <point x="1108" y="181"></point>
      <point x="977" y="132"></point>
      <point x="846" y="132" type="curve" smooth="yes"></point>
      <point x="452" y="132"></point>
      <point x="348" y="452"></point>
      <point x="348" y="784" type="curve" smooth="yes"></point>
      <point x="348" y="1119"></point>
      <point x="463" y="1447"></point>
      <point x="854" y="1447" type="curve" smooth="yes"></point>
      <point x="984" y="1447"></point>
      <point x="1108" y="1397"></point>
      <point x="1182" y="1352" type="curve"></point>
      <point x="1242" y="1482" type="line"></point>
      <point x="1157" y="1538"></point>
      <point x="1026" y="1599"></point>
      <point x="854" y="1599" type="curve" smooth="yes"></point>
      <point x="358" y="1599"></point>
      <point x="154" y="1252"></point>
      <point x="154" y="788" type="curve" smooth="yes"></point>
      <point x="154" y="348"></point>
      <point x="334" y="-20"></point>
    </contour>
  </outline>
</glyph>
<glyph name="D" format="1">
  <advance width="1470"/>
  <unicode hex="0044"/>
  <outline>
    <contour>
      <point x="344" y="143" type="line"/>
      <point x="344" y="1436" type="line"/>
      <point x="683" y="1436" type="line" smooth="yes"/>
      <point x="1072" y="1436"/>
      <point x="1162" y="1111"/>
      <point x="1162" y="789" type="curve" smooth="yes"/>
      <point x="1162" y="465"/>
      <point x="1076" y="143"/>
      <point x="683" y="143" type="curve" smooth="yes"/>
    </contour>
    <contour>
      <point x="150" y="0" type="line"/>
      <point x="683" y="0" type="line" smooth="yes"/>
      <point x="1179" y="0"/>
      <point x="1356" y="338"/>
      <point x="1356" y="788" type="curve" smooth="yes"/>
      <point x="1356" y="1238"/>
      <point x="1180" y="1579"/>
      <point x="683" y="1579" type="curve" smooth="yes"/>
      <point x="150" y="1579" type="line"/>
    </contour>
  </outline>
</glyph>
<glyph name="E" format="1">
  <advance width="1156"/>
  <unicode hex="0045"/>
  <outline>
    <contour>
      <point x="150" y="0" type="line"/>
      <point x="1108" y="0" type="line"/>
      <point x="1108" y="143" type="line"/>
      <point x="344" y="143" type="line"/>
      <point x="344" y="776" type="line"/>
      <point x="997" y="776" type="line"/>
      <point x="997" y="891" type="line"/>
      <point x="344" y="891" type="line"/>
      <point x="344" y="1436" type="line"/>
      <point x="1095" y="1436" type="line"/>
      <point x="1095" y="1579" type="line"/>
      <point x="150" y="1579" type="line"/>
    </contour>
  </outline>
</glyph>
<glyph name="F" format="1">
  <advance width="1236"></advance>
  <unicode hex="0046"></unicode>
  <outline>
    <contour>
      <point x="196" y="0" type="line"></point>
      <point x="392" y="0" type="line"></point>
      <point x="392" y="762" type="line"></point>
      <point x="1047" y="762" type="line"></point>
      <point x="1047" y="879" type="line"></point>
      <point x="392" y="879" type="line"></point>
      <point x="392" y="1436" type="line"></point>
      <point x="1108" y="1436" type="line"></point>
      <point x="1108" y="1579" type="line"></point>
      <point x="196" y="1579" type="line"></point>
    </contour>
  </outline>
</glyph>
<glyph name="G" format="1">
  <advance width="1460"/>
  <unicode hex="0047"/>
  <outline>
    <contour>
      <point x="745" y="-41" type="curve" smooth="yes"/>
      <point x="925" y="-41"/>
      <point x="1162" y="10"/>
      <point x="1212" y="213" type="curve"/>
      <point x="1265" y="0" type="line"/>
      <point x="1353" y="0" type="line"/>
      <point x="1353" y="811" type="line"/>
      <point x="766" y="811" type="line"/>
      <point x="766" y="684" type="line"/>
      <point x="1168" y="684" type="line"/>
      <point x="1168" y="399" type="line" smooth="yes"/>
      <point x="1168" y="183"/>
      <point x="978" y="111"/>
      <point x="792" y="111" type="curve" smooth="yes"/>
      <point x="387" y="111"/>
      <point x="308" y="449"/>
      <point x="308" y="782" type="curve" smooth="yes"/>
      <point x="308" y="1112"/>
      <point x="404" y="1458"/>
      <point x="807" y="1458" type="curve" smooth="yes"/>
      <point x="926" y="1458"/>
      <point x="1079" y="1422"/>
      <point x="1173" y="1343" type="curve"/>
      <point x="1240" y="1476" type="line"/>
      <point x="1104" y="1562"/>
      <point x="973" y="1610"/>
      <point x="809" y="1610" type="curve" smooth="yes"/>
      <point x="310" y="1610"/>
      <point x="114" y="1243"/>
      <point x="114" y="786" type="curve" smooth="yes"/>
      <point x="114" y="388"/>
      <point x="284" y="-41"/>
    </contour>
  </outline>
</glyph>
<glyph name="H" format="1">
  <advance width="1520"/>
  <unicode hex="0048"/>
  <outline>
    <contour>
      <point x="150" y="0" type="line"/>
      <point x="344" y="0" type="line"/>
      <point x="344" y="764" type="line"/>
      <point x="1176" y="764" type="line"/>
      <point x="1176" y="0" type="line"/>
      <point x="1370" y="0" type="line"/>
      <point x="1370" y="1579" type="line"/>
      <point x="1176" y="1579" type="line"/>
      <point x="1176" y="879" type="line"/>
      <point x="344" y="879" type="line"/>
      <point x="344" y="1579" type="line"/>
      <point x="150" y="1579" type="line"/>
    </contour>
  </outline>
</glyph>
<glyph name="I" format="1">
  <advance width="779"/>
  <unicode hex="0049"/>
  <outline>
    <contour>
      <point x="93" y="0" type="line"/>
      <point x="686" y="0" type="line"/>
      <point x="686" y="112" type="line"/>
      <point x="480" y="112" type="line"/>
      <point x="480" y="1461" type="line"/>
      <point x="686" y="1461" type="line"/>
      <point x="686" y="1579" type="line"/>
      <point x="93" y="1579" type="line"/>
      <point x="93" y="1461" type="line"/>
      <point x="297" y="1461" type="line"/>
      <point x="297" y="112" type="line"/>
      <point x="93" y="112" type="line"/>
    </contour>
  </outline>
</glyph>
<glyph name="J" format="1">
  <advance width="725"/>
  <unicode hex="004A"/>
  <outline>
    <contour>
      <point x="108" y="-90" type="line"/>
      <point x="516" y="-90"/>
      <point x="575" y="168"/>
      <point x="575" y="514" type="curve" smooth="yes"/>
      <point x="575" y="1579" type="line"/>
      <point x="383" y="1579" type="line"/>
      <point x="383" y="479" type="line" smooth="yes"/>
      <point x="383" y="203"/>
      <point x="369" y="83"/>
      <point x="61" y="37" type="curve"/>
    </contour>
  </outline>
</glyph>
<glyph name="K" format="1">
  <advance width="1356"></advance>
  <unicode hex="004B"></unicode>
  <outline>
    <contour>
      <point x="182" y="0" type="line"></point>
      <point x="376" y="0" type="line"></point>
      <point x="376" y="747" type="line"></point>
      <point x="419" y="747" type="line"></point>
      <point x="1097" y="0" type="line"></point>
      <point x="1330" y="0" type="line"></point>
      <point x="588" y="815" type="line"></point>
      <point x="1282" y="1579" type="line"></point>
      <point x="1071" y="1579" type="line"></point>
      <point x="409" y="876" type="line"></point>
      <point x="376" y="876" type="line"></point>
      <point x="376" y="1579" type="line"></point>
      <point x="182" y="1579" type="line"></point>
    </contour>
  </outline>
</glyph>
<glyph name="L" format="1">
  <advance width="1141"/>
  <unicode hex="004C"/>
  <outline>
    <contour>
      <point x="150" y="0" type="line"/>
      <point x="1090" y="0" type="line"/>
      <point x="1090" y="143" type="line"/>
      <point x="344" y="143" type="line"/>
      <point x="344" y="1579" type="line"/>
      <point x="150" y="1579" type="line"/>
    </contour>
  </outline>
</glyph>
<glyph name="M" format="1">
  <advance width="1832"/>
  <unicode hex="004D"/>
  <outline>
    <contour>
      <point x="150" y="0" type="line"/>
      <point x="324" y="0" type="line"/>
      <point x="324" y="1399" type="line"/>
      <point x="828" y="112" type="line"/>
      <point x="994" y="112" type="line"/>
      <point x="1509" y="1399" type="line"/>
      <point x="1509" y="0" type="line"/>
      <point x="1682" y="0" type="line"/>
      <point x="1682" y="1579" type="line"/>
      <point x="1401" y="1579" type="line"/>
      <point x="916" y="320" type="line"/>
      <point x="431" y="1579" type="line"/>
      <point x="150" y="1579" type="line"/>
    </contour>
  </outline>
</glyph>
<glyph name="N" format="1">
  <advance width="1656"></advance>
  <unicode hex="004E"></unicode>
  <outline>
    <contour>
      <point x="209" y="0" type="line"></point>
      <point x="381" y="0" type="line"></point>
      <point x="381" y="1404" type="line"></point>
      <point x="1200" y="0" type="line"></point>
      <point x="1462" y="0" type="line"></point>
      <point x="1462" y="1579" type="line"></point>
      <point x="1290" y="1579" type="line"></point>
      <point x="1290" y="175" type="line"></point>
      <point x="471" y="1579" type="line"></point>
      <point x="209" y="1579" type="line"></point>
    </contour>
  </outline>
</glyph>
<glyph name="O" format="1">
  <advance width="1538"/>
  <unicode hex="004F"/>
  <outline>
    <contour>
      <point x="768" y="132" type="curve" smooth="yes"/>
      <point x="385" y="132"/>
      <point x="308" y="464"/>
      <point x="308" y="784" type="curve" smooth="yes"/>
      <point x="308" y="1101"/>
      <point x="385" y="1447"/>
      <point x="768" y="1447" type="curve" smooth="yes"/>
      <point x="1152" y="1447"/>
      <point x="1230" y="1103"/>
      <point x="1230" y="784" type="curve" smooth="yes"/>
      <point x="1230" y="464"/>
      <point x="1149" y="132"/>
    </contour>
    <contour>
      <point x="768" y="-20" type="curve" smooth="yes"/>
      <point x="1248" y="-20"/>
      <point x="1424" y="342"/>
      <point x="1424" y="784" type="curve" smooth="yes"/>
      <point x="1424" y="1236"/>
      <point x="1252" y="1599"/>
      <point x="768" y="1599" type="curve" smooth="yes"/>
      <point x="293" y="1599"/>
      <point x="114" y="1214"/>
      <point x="114" y="784" type="curve" smooth="yes"/>
      <point x="114" y="342"/>
      <point x="290" y="-20"/>
    </contour>
  </outline>
</glyph>
<glyph name="P" format="1">
  <advance width="1440"></advance>
  <unicode hex="0050"></unicode>
  <outline>
    <contour>
      <point x="189" y="0" type="line"></point>
      <point x="383" y="0" type="line"></point>
      <point x="383" y="639" type="line"></point>
      <point x="742" y="639"></point>
      <point x="1286" y="612"></point>
      <point x="1286" y="1108" type="curve" smooth="yes"></point>
      <point x="1286" y="1536"></point>
      <point x="940" y="1579"></point>
      <point x="586" y="1579" type="curve" smooth="yes"></point>
      <point x="189" y="1579" type="line"></point>
    </contour>
    <contour>
      <point x="383" y="784" type="line"></point>
      <point x="383" y="1436" type="line"></point>
      <point x="598" y="1436" type="line" smooth="yes"></point>
      <point x="897" y="1436"></point>
      <point x="1104" y="1422"></point>
      <point x="1104" y="1084" type="curve" smooth="yes"></point>
      <point x="1104" y="790"></point>
      <point x="774" y="784"></point>
      <point x="553" y="784" type="curve" smooth="yes"></point>
    </contour>
  </outline>
</glyph>
<glyph name="Q" format="1">
  <advance width="1620"></advance>
  <unicode hex="0051"></unicode>
  <outline>
    <contour>
      <point x="1206" y="-424" type="line"></point>
      <point x="1325" y="-293" type="line"></point>
      <point x="946" y="-21" type="line"></point>
      <point x="1329" y="46"></point>
      <point x="1464" y="414"></point>
      <point x="1464" y="784" type="curve" smooth="yes"></point>
      <point x="1464" y="1230"></point>
      <point x="1305" y="1610"></point>
      <point x="811" y="1610" type="curve" smooth="yes"></point>
      <point x="320" y="1610"></point>
      <point x="147" y="1228"></point>
      <point x="147" y="792" type="curve" smooth="yes"></point>
      <point x="147" y="399"></point>
      <point x="288" y="15"></point>
      <point x="713" y="-35" type="curve"></point>
    </contour>
    <contour>
      <point x="811" y="111" type="curve" smooth="yes"></point>
      <point x="420" y="111"></point>
      <point x="341" y="466"></point>
      <point x="341" y="784" type="curve" smooth="yes"></point>
      <point x="341" y="1103"></point>
      <point x="418" y="1458"></point>
      <point x="811" y="1458" type="curve" smooth="yes"></point>
      <point x="1201" y="1458"></point>
      <point x="1270" y="1101"></point>
      <point x="1270" y="784" type="curve" smooth="yes"></point>
      <point x="1270" y="465"></point>
      <point x="1204" y="111"></point>
    </contour>
  </outline>
</glyph>
<glyph name="R" format="1">
  <advance width="1476"></advance>
  <unicode hex="0052"></unicode>
  <outline>
    <contour>
      <point x="189" y="0" type="line"></point>
      <point x="383" y="0" type="line"></point>
      <point x="383" y="733" type="line"></point>
      <point x="680" y="733" type="line" smooth="yes"></point>
      <point x="1042" y="733"></point>
      <point x="1099" y="653"></point>
      <point x="1113" y="381" type="curve" smooth="yes"></point>
      <point x="1133" y="0" type="line"></point>
      <point x="1311" y="0" type="line"></point>
      <point x="1291" y="405" type="line" smooth="yes"></point>
      <point x="1280" y="629"></point>
      <point x="1184" y="796"></point>
      <point x="1011" y="809" type="curve"></point>
      <point x="1178" y="847"></point>
      <point x="1305" y="968"></point>
      <point x="1305" y="1160" type="curve" smooth="yes"></point>
      <point x="1305" y="1579"></point>
      <point x="962" y="1579"></point>
      <point x="592" y="1579" type="curve" smooth="yes"></point>
      <point x="189" y="1579" type="line"></point>
    </contour>
    <contour>
      <point x="383" y="862" type="line"></point>
      <point x="383" y="1436" type="line"></point>
      <point x="592" y="1436" type="line" smooth="yes"></point>
      <point x="866" y="1436"></point>
      <point x="1135" y="1465"></point>
      <point x="1135" y="1150" type="curve" smooth="yes"></point>
      <point x="1135" y="885"></point>
      <point x="941" y="862"></point>
      <point x="741" y="862" type="curve" smooth="yes"></point>
    </contour>
  </outline>
</glyph>
<glyph name="S" format="1">
  <advance width="1237"/>
  <unicode hex="0053"/>
  <outline>
    <contour>
      <point x="612" y="-20" type="curve" smooth="yes"/>
      <point x="929" y="-20"/>
      <point x="1153" y="103"/>
      <point x="1153" y="414" type="curve" smooth="yes"/>
      <point x="1153" y="718"/>
      <point x="980" y="804"/>
      <point x="739" y="891" type="curve" smooth="yes"/>
      <point x="676" y="913"/>
      <point x="606" y="937"/>
      <point x="544" y="959" type="curve" smooth="yes"/>
      <point x="391" y="1013"/>
      <point x="278" y="1057"/>
      <point x="278" y="1197" type="curve" smooth="yes"/>
      <point x="278" y="1398"/>
      <point x="457" y="1447"/>
      <point x="635" y="1447" type="curve" smooth="yes"/>
      <point x="767" y="1447"/>
      <point x="912" y="1395"/>
      <point x="1000" y="1336" type="curve"/>
      <point x="1067" y="1473" type="line"/>
      <point x="929" y="1565"/>
      <point x="765" y="1599"/>
      <point x="596" y="1599" type="curve" smooth="yes"/>
      <point x="338" y="1599"/>
      <point x="99" y="1469"/>
      <point x="99" y="1192" type="curve" smooth="yes"/>
      <point x="99" y="941"/>
      <point x="264" y="864"/>
      <point x="457" y="798" type="curve" smooth="yes"/>
      <point x="531" y="772"/>
      <point x="610" y="749"/>
      <point x="680" y="724" type="curve" smooth="yes"/>
      <point x="851" y="664"/>
      <point x="975" y="591"/>
      <point x="975" y="416" type="curve" smooth="yes"/>
      <point x="975" y="193"/>
      <point x="828" y="132"/>
      <point x="619" y="132" type="curve" smooth="yes"/>
      <point x="418" y="132"/>
      <point x="227" y="230"/>
      <point x="171" y="268" type="curve"/>
      <point x="171" y="268"/>
      <point x="106" y="122"/>
      <point x="106" y="122" type="curve"/>
      <point x="227" y="45"/>
      <point x="470" y="-20"/>
    </contour>
  </outline>
</glyph>
<glyph name="T" format="1">
  <advance width="1116"></advance>
  <unicode hex="0054"></unicode>
  <outline>
    <contour>
      <point x="471" y="0" type="line"></point>
      <point x="661" y="0" type="line"></point>
      <point x="661" y="1436" type="line"></point>
      <point x="1119" y="1436" type="line"></point>
      <point x="1119" y="1579" type="line"></point>
      <point x="11" y="1579" type="line"></point>
      <point x="11" y="1436" type="line"></point>
      <point x="471" y="1436" type="line"></point>
    </contour>
  </outline>
</glyph>
<glyph name="U" format="1">
  <advance width="1486"/>
  <unicode hex="0055"/>
  <outline>
    <contour>
      <point x="742" y="-41" type="curve" smooth="yes"/>
      <point x="1232" y="-41"/>
      <point x="1360" y="245"/>
      <point x="1360" y="701" type="curve" smooth="yes"/>
      <point x="1360" y="1579" type="line"/>
      <point x="1164" y="1579" type="line"/>
      <point x="1164" y="697" type="line" smooth="yes"/>
      <point x="1164" y="361"/>
      <point x="1133" y="100"/>
      <point x="742" y="100" type="curve" smooth="yes"/>
      <point x="353" y="100"/>
      <point x="318" y="359"/>
      <point x="318" y="697" type="curve" smooth="yes"/>
      <point x="318" y="1579" type="line"/>
      <point x="126" y="1579" type="line"/>
      <point x="126" y="701" type="line" smooth="yes"/>
      <point x="126" y="244"/>
      <point x="256" y="-41"/>
    </contour>
  </outline>
</glyph>
<glyph name="V" format="1">
  <advance width="1310"/>
  <unicode hex="0056"/>
  <outline>
    <contour>
      <point x="534" y="0" type="line"/>
      <point x="778" y="0" type="line"/>
      <point x="1272" y="1579" type="line"/>
      <point x="1083" y="1579" type="line"/>
      <point x="656" y="140" type="line"/>
      <point x="229" y="1579" type="line"/>
      <point x="38" y="1579" type="line"/>
    </contour>
  </outline>
</glyph>
<glyph name="W" format="1">
  <advance width="1993"/>
  <unicode hex="0057"/>
  <outline>
    <contour>
      <point x="416" y="0" type="line"/>
      <point x="683" y="0" type="line"/>
      <point x="1004" y="1333" type="line"/>
      <point x="1311" y="0" type="line"/>
      <point x="1577" y="0" type="line"/>
      <point x="1973" y="1579" type="line"/>
      <point x="1793" y="1579" type="line"/>
      <point x="1443" y="175" type="line"/>
      <point x="1141" y="1489" type="line"/>
      <point x="867" y="1489" type="line"/>
      <point x="551" y="175" type="line"/>
      <point x="201" y="1579" type="line"/>
      <point x="20" y="1579" type="line"/>
    </contour>
  </outline>
</glyph>
<glyph name="X" format="1">
  <advance width="1330"/>
  <unicode hex="0058"/>
  <outline>
    <contour>
      <point x="59" y="0" type="line"/>
      <point x="277" y="0" type="line"/>
      <point x="406" y="217"/>
      <point x="535" y="434"/>
      <point x="665" y="650" type="curve"/>
      <point x="1053" y="0" type="line"/>
      <point x="1271" y="0" type="line"/>
      <point x="774" y="800" type="line"/>
      <point x="1269" y="1579" type="line"/>
      <point x="1073" y="1579" type="line"/>
      <point x="665" y="947" type="line"/>
      <point x="257" y="1579" type="line"/>
      <point x="61" y="1579" type="line"/>
      <point x="556" y="800" type="line"/>
    </contour>
  </outline>
</glyph>
<glyph name="Y" format="1">
  <advance width="1164"></advance>
  <unicode hex="0059"></unicode>
  <outline>
    <contour>
      <point x="485" y="0" type="line"></point>
      <point x="675" y="0" type="line"></point>
      <point x="675" y="557" type="line"></point>
      <point x="1189" y="1579" type="line"></point>
      <point x="998" y="1579" type="line"></point>
      <point x="580" y="748" type="line"></point>
      <point x="440" y="1024"></point>
      <point x="303" y="1301"></point>
      <point x="168" y="1579" type="curve"></point>
      <point x="-24" y="1579" type="line"></point>
      <point x="485" y="557" type="line"></point>
    </contour>
  </outline>
</glyph>
<glyph name="Z" format="1">
  <advance width="1224"></advance>
  <unicode hex="005A"></unicode>
  <outline>
    <contour>
      <point x="113" y="0" type="line"></point>
      <point x="1124" y="0" type="line"></point>
      <point x="1124" y="143" type="line"></point>
      <point x="310" y="143" type="line"></point>
      <point x="1122" y="1419" type="line"></point>
      <point x="1122" y="1579" type="line"></point>
      <point x="113" y="1579" type="line"></point>
      <point x="113" y="1447" type="line"></point>
      <point x="921" y="1447" type="line"></point>
      <point x="113" y="180" type="line"></point>
    </contour>
  </outline>
</glyph>
<glyph name="bracketleft" format="1">
  <advance width="1056"></advance>
  <unicode hex="005B"></unicode>
  <outline>
    <contour>
      <point x="196" y="0" type="line"></point>
      <point x="860" y="0" type="line"></point>
      <point x="860" y="143" type="line"></point>
      <point x="389" y="143" type="line"></point>
      <point x="389" y="1436" type="line"></point>
      <point x="860" y="1436" type="line"></point>
      <point x="860" y="1579" type="line"></point>
      <point x="196" y="1579" type="line"></point>
    </contour>
  </outline>
</glyph>
<glyph name="underscore" format="1">
  <advance width="1176"></advance>
  <unicode hex="005F"></unicode>
  <outline>
    <contour>
      <point x="118" y="-111" type="line"></point>
      <point x="1058" y="-111" type="line"></point>
      <point x="1058" y="33" type="line"></point>
      <point x="118" y="33" type="line"></point>
    </contour>
  </outline>
</glyph>
<glyph name="a" format="1">
  <advance width="1212"></advance>
  <unicode hex="0061"></unicode>
  <outline>
    <contour>
      <point x="490" y="-20" type="curve" smooth="yes"></point>
      <point x="657" y="-20"></point>
      <point x="797" y="44"></point>
      <point x="895" y="178" type="curve"></point>
      <point x="923" y="0" type="line"></point>
      <point x="1063" y="0" type="line"></point>
      <point x="1063" y="686" type="line" smooth="yes"></point>
      <point x="1063" y="1043"></point>
      <point x="962" y="1190"></point>
      <point x="591" y="1190" type="curve" smooth="yes"></point>
      <point x="434" y="1190"></point>
      <point x="301" y="1150"></point>
      <point x="168" y="1075" type="curve"></point>
      <point x="237" y="949" type="line"></point>
      <point x="337" y="1013"></point>
      <point x="483" y="1047"></point>
      <point x="601" y="1047" type="curve" smooth="yes"></point>
      <point x="845" y="1047"></point>
      <point x="873" y="925"></point>
      <point x="873" y="713" type="curve" smooth="yes"></point>
      <point x="873" y="661" type="line"></point>
      <point x="792" y="690"></point>
      <point x="648" y="715"></point>
      <point x="562" y="715" type="curve" smooth="yes"></point>
      <point x="300" y="715"></point>
      <point x="98" y="603"></point>
      <point x="98" y="343" type="curve" smooth="yes"></point>
      <point x="98" y="97"></point>
      <point x="251" y="-20"></point>
    </contour>
    <contour>
      <point x="537" y="117" type="curve" smooth="yes"></point>
      <point x="369" y="117"></point>
      <point x="289" y="182"></point>
      <point x="289" y="356" type="curve" smooth="yes"></point>
      <point x="289" y="556"></point>
      <point x="439" y="596"></point>
      <point x="611" y="596" type="curve" smooth="yes"></point>
      <point x="699" y="596"></point>
      <point x="787" y="582"></point>
      <point x="873" y="558" type="curve"></point>
      <point x="873" y="271" type="line"></point>
      <point x="781" y="185"></point>
      <point x="666" y="117"></point>
    </contour>
  </outline>
</glyph>
<glyph name="b" format="1">
  <advance width="1284"/>
  <unicode hex="0062"/>
  <outline>
    <contour>
      <point x="679" y="-20" type="curve" smooth="yes"/>
      <point x="1024" y="-20"/>
      <point x="1167" y="277"/>
      <point x="1167" y="580" type="curve" smooth="yes"/>
      <point x="1167" y="881"/>
      <point x="1037" y="1190"/>
      <point x="691" y="1190" type="curve" smooth="yes"/>
      <point x="570" y="1190"/>
      <point x="425" y="1136"/>
      <point x="343" y="1039" type="curve"/>
      <point x="343" y="1614" type="line"/>
      <point x="153" y="1579" type="line"/>
      <point x="153" y="0" type="line"/>
      <point x="293" y="0" type="line"/>
      <point x="321" y="146" type="line"/>
      <point x="409" y="37"/>
      <point x="532" y="-20"/>
    </contour>
    <contour>
      <point x="698" y="117" type="curve" smooth="yes"/>
      <point x="547" y="107"/>
      <point x="428" y="167"/>
      <point x="343" y="266" type="curve"/>
      <point x="343" y="902" type="line"/>
      <point x="427" y="982"/>
      <point x="569" y="1047"/>
      <point x="685" y="1047" type="curve" smooth="yes"/>
      <point x="935" y="1047"/>
      <point x="985" y="779"/>
      <point x="985" y="584" type="curve" smooth="yes"/>
      <point x="985" y="390"/>
      <point x="945" y="133"/>
    </contour>
  </outline>
</glyph>
<glyph name="c" format="1">
  <advance width="1082"/>
  <unicode hex="0063"/>
  <outline>
    <contour>
      <point x="632" y="-20" type="curve" smooth="yes"/>
      <point x="766" y="-25"/>
      <point x="894" y="18"/>
      <point x="1002" y="111" type="curve"/>
      <point x="948" y="236" type="line"/>
      <point x="866" y="162"/>
      <point x="751" y="113"/>
      <point x="637" y="117" type="curve" smooth="yes"/>
      <point x="394" y="125"/>
      <point x="289" y="360"/>
      <point x="289" y="580" type="curve" smooth="yes"/>
      <point x="289" y="810"/>
      <point x="396" y="1050"/>
      <point x="651" y="1050" type="curve" smooth="yes"/>
      <point x="761" y="1050"/>
      <point x="864" y="1007"/>
      <point x="947" y="931" type="curve"/>
      <point x="1002" y="1057" type="line"/>
      <point x="894" y="1145"/>
      <point x="778" y="1190"/>
      <point x="644" y="1190" type="curve" smooth="yes"/>
      <point x="310" y="1190"/>
      <point x="106" y="903"/>
      <point x="106" y="580" type="curve" smooth="yes"/>
      <point x="106" y="260"/>
      <point x="301" y="-8"/>
    </contour>
  </outline>
</glyph>
<glyph name="d" format="1">
  <advance width="1254"/>
  <unicode hex="0064"/>
  <outline>
    <contour>
      <point x="588" y="-20" type="curve" smooth="yes"/>
      <point x="728" y="-20"/>
      <point x="869" y="71"/>
      <point x="952" y="179" type="curve"/>
      <point x="980" y="0" type="line"/>
      <point x="1121" y="0" type="line"/>
      <point x="1121" y="1614" type="line"/>
      <point x="931" y="1579" type="line"/>
      <point x="931" y="1028" type="line"/>
      <point x="850" y="1129"/>
      <point x="693" y="1190"/>
      <point x="566" y="1190" type="curve" smooth="yes"/>
      <point x="234" y="1190"/>
      <point x="104" y="870"/>
      <point x="104" y="584" type="curve" smooth="yes"/>
      <point x="104" y="275"/>
      <point x="238" y="-20"/>
    </contour>
    <contour>
      <point x="584" y="117" type="curve" smooth="yes"/>
      <point x="328" y="117"/>
      <point x="286" y="381"/>
      <point x="286" y="587" type="curve" smooth="yes"/>
      <point x="286" y="787"/>
      <point x="328" y="1047"/>
      <point x="578" y="1047" type="curve" smooth="yes"/>
      <point x="708" y="1047"/>
      <point x="830" y="980"/>
      <point x="931" y="903" type="curve"/>
      <point x="931" y="275" type="line"/>
      <point x="848" y="181"/>
      <point x="706" y="117"/>
    </contour>
  </outline>
</glyph>
<glyph name="e" format="1">
  <advance width="1176"></advance>
  <unicode hex="0065"></unicode>
  <outline>
    <contour>
      <point x="629" y="-20" type="curve" smooth="yes"></point>
      <point x="751" y="-20"></point>
      <point x="914" y="25"></point>
      <point x="1008" y="106" type="curve"></point>
      <point x="947" y="230" type="line"></point>
      <point x="862" y="162"></point>
      <point x="754" y="117"></point>
      <point x="641" y="117" type="curve" smooth="yes"></point>
      <point x="375" y="117"></point>
      <point x="294" y="326"></point>
      <point x="292" y="563" type="curve"></point>
      <point x="1052" y="563" type="line"></point>
      <point x="1058" y="600"></point>
      <point x="1063" y="638"></point>
      <point x="1063" y="676" type="curve" smooth="yes"></point>
      <point x="1063" y="957"></point>
      <point x="926" y="1190"></point>
      <point x="620" y="1190" type="curve" smooth="yes"></point>
      <point x="268" y="1190"></point>
      <point x="105" y="897"></point>
      <point x="105" y="578" type="curve" smooth="yes"></point>
      <point x="105" y="246"></point>
      <point x="267" y="-20"></point>
    </contour>
    <contour>
      <point x="296" y="682" type="line"></point>
      <point x="313" y="882"></point>
      <point x="393" y="1057"></point>
      <point x="621" y="1057" type="curve" smooth="yes"></point>
      <point x="826" y="1057"></point>
      <point x="895" y="898"></point>
      <point x="895" y="717" type="curve" smooth="yes"></point>
      <point x="895" y="682" type="line"></point>
    </contour>
  </outline>
</glyph>
<glyph name="f" format="1">
  <advance width="828"></advance>
  <unicode hex="0066"></unicode>
  <outline>
    <contour>
      <point x="251" y="0" type="line"></point>
      <point x="441" y="0" type="line"></point>
      <point x="441" y="1064" type="line"></point>
      <point x="789" y="1064" type="line"></point>
      <point x="789" y="1169" type="line"></point>
      <point x="441" y="1169" type="line"></point>
      <point x="441" y="1332"></point>
      <point x="441" y="1516"></point>
      <point x="597" y="1516" type="curve" smooth="yes"></point>
      <point x="656" y="1516"></point>
      <point x="724" y="1493"></point>
      <point x="770" y="1457" type="curve"></point>
      <point x="824" y="1567" type="line"></point>
      <point x="759" y="1615"></point>
      <point x="663" y="1659"></point>
      <point x="582" y="1659" type="curve" smooth="yes"></point>
      <point x="307" y="1659"></point>
      <point x="251" y="1444"></point>
      <point x="251" y="1169" type="curve"></point>
      <point x="56" y="1169" type="line"></point>
      <point x="56" y="1064" type="line"></point>
      <point x="251" y="1064" type="line"></point>
    </contour>
  </outline>
</glyph>
<glyph name="h" format="1">
  <advance width="1284"></advance>
  <unicode hex="0068"></unicode>
  <outline>
    <contour>
      <point x="160" y="0" type="line"></point>
      <point x="350" y="0" type="line"></point>
      <point x="350" y="888" type="line"></point>
      <point x="436" y="979"></point>
      <point x="601" y="1047"></point>
      <point x="725" y="1047" type="curve" smooth="yes"></point>
      <point x="919" y="1047"></point>
      <point x="947" y="892"></point>
      <point x="947" y="727" type="curve" smooth="yes"></point>
      <point x="947" y="0" type="line"></point>
      <point x="1137" y="0" type="line"></point>
      <point x="1137" y="727" type="line" smooth="yes"></point>
      <point x="1137" y="1018"></point>
      <point x="1032" y="1190"></point>
      <point x="739" y="1190" type="curve" smooth="yes"></point>
      <point x="576" y="1190"></point>
      <point x="456" y="1108"></point>
      <point x="350" y="1011" type="curve"></point>
      <point x="350" y="1616" type="line"></point>
      <point x="160" y="1579" type="line"></point>
    </contour>
  </outline>
</glyph>
<glyph name="i" format="1">
  <advance width="660"></advance>
  <unicode hex="0069"></unicode>
  <outline>
    <contour>
      <point x="232" y="0" type="line"></point>
      <point x="414" y="0" type="line"></point>
      <point x="414" y="1169" type="line"></point>
      <point x="232" y="1169" type="line"></point>
    </contour>
    <contour>
      <point x="327" y="1347" type="curve" smooth="yes"></point>
      <point x="392" y="1347"></point>
      <point x="435" y="1400"></point>
      <point x="435" y="1462" type="curve" smooth="yes"></point>
      <point x="435" y="1524"></point>
      <point x="392" y="1577"></point>
      <point x="327" y="1577" type="curve" smooth="yes"></point>
      <point x="264" y="1577"></point>
      <point x="215" y="1524"></point>
      <point x="215" y="1462" type="curve" smooth="yes"></point>
      <point x="215" y="1399"></point>
      <point x="263" y="1347"></point>
    </contour>
  </outline>
</glyph>
<glyph name="j" format="1">
  <advance width="696"></advance>
  <unicode hex="006A"></unicode>
  <outline>
    <contour>
      <point x="157" y="-373" type="line"></point>
      <point x="395" y="-315"></point>
      <point x="488" y="-68"></point>
      <point x="488" y="154" type="curve" smooth="yes"></point>
      <point x="488" y="1169" type="line"></point>
      <point x="298" y="1169" type="line"></point>
      <point x="298" y="176" type="line" smooth="yes"></point>
      <point x="298" y="-14"></point>
      <point x="284" y="-147"></point>
      <point x="110" y="-258" type="curve"></point>
    </contour>
    <contour>
      <point x="392" y="1347" type="curve" smooth="yes"></point>
      <point x="457" y="1347"></point>
      <point x="500" y="1400"></point>
      <point x="500" y="1462" type="curve" smooth="yes"></point>
      <point x="500" y="1524"></point>
      <point x="457" y="1577"></point>
      <point x="392" y="1577" type="curve" smooth="yes"></point>
      <point x="329" y="1577"></point>
      <point x="280" y="1524"></point>
      <point x="280" y="1462" type="curve" smooth="yes"></point>
      <point x="280" y="1399"></point>
      <point x="328" y="1347"></point>
    </contour>
  </outline>
</glyph>
<glyph name="k" format="1">
  <advance width="1128"></advance>
  <unicode hex="006B"></unicode>
  <outline>
    <contour>
      <point x="153" y="0" type="line"></point>
      <point x="343" y="0" type="line"></point>
      <point x="343" y="468" type="line"></point>
      <point x="449" y="574" type="line"></point>
      <point x="922" y="0" type="line"></point>
      <point x="1140" y="0" type="line"></point>
      <point x="588" y="658" type="line"></point>
      <point x="1096" y="1169" type="line"></point>
      <point x="865" y="1169" type="line"></point>
      <point x="343" y="643" type="line"></point>
      <point x="343" y="1614" type="line"></point>
      <point x="153" y="1579" type="line"></point>
    </contour>
  </outline>
</glyph>
<glyph name="m" format="1">
  <advance width="1913"/>
  <unicode hex="006D"/>
  <outline>
    <contour>
      <point x="133" y="0" type="line"/>
      <point x="323" y="0" type="line"/>
      <point x="323" y="878" type="line"/>
      <point x="411" y="966"/>
      <point x="531" y="1047"/>
      <point x="663" y="1047" type="curve" smooth="yes"/>
      <point x="835" y="1047"/>
      <point x="855" y="912"/>
      <point x="855" y="768" type="curve" smooth="yes"/>
      <point x="855" y="0" type="line"/>
      <point x="1045" y="0" type="line"/>
      <point x="1045" y="858" type="line"/>
      <point x="1140" y="957"/>
      <point x="1264" y="1047"/>
      <point x="1407" y="1047" type="curve" smooth="yes"/>
      <point x="1578" y="1047"/>
      <point x="1601" y="912"/>
      <point x="1601" y="768" type="curve" smooth="yes"/>
      <point x="1601" y="0" type="line"/>
      <point x="1791" y="0" type="line"/>
      <point x="1791" y="766" type="line" smooth="yes"/>
      <point x="1791" y="992"/>
      <point x="1684" y="1190"/>
      <point x="1435" y="1190" type="curve" smooth="yes"/>
      <point x="1272" y="1190"/>
      <point x="1107" y="1101"/>
      <point x="1015" y="967" type="curve"/>
      <point x="968" y="1112"/>
      <point x="844" y="1190"/>
      <point x="694" y="1190" type="curve" smooth="yes"/>
      <point x="534" y="1190"/>
      <point x="392" y="1112"/>
      <point x="297" y="982" type="curve"/>
      <point x="274" y="1169" type="line"/>
      <point x="133" y="1169" type="line"/>
    </contour>
  </outline>
</glyph>
<glyph name="n" format="1">
  <advance width="1296"/>
  <unicode hex="006E"/>
  <outline>
    <contour>
      <point x="160" y="0" type="line"/>
      <point x="350" y="0" type="line"/>
      <point x="350" y="875" type="line"/>
      <point x="433" y="957"/>
      <point x="560" y="1047"/>
      <point x="730" y="1047" type="curve" smooth="yes"/>
      <point x="921" y="1047"/>
      <point x="954" y="884"/>
      <point x="954" y="727" type="curve" smooth="yes"/>
      <point x="954" y="0" type="line"/>
      <point x="1144" y="0" type="line"/>
      <point x="1144" y="727" type="line" smooth="yes"/>
      <point x="1144" y="975"/>
      <point x="1056" y="1183"/>
      <point x="781" y="1188" type="curve" smooth="yes"/>
      <point x="600" y="1191"/>
      <point x="424" y="1109"/>
      <point x="330" y="990" type="curve"/>
      <point x="300" y="1169" type="line"/>
      <point x="160" y="1169" type="line"/>
    </contour>
  </outline>
</glyph>
<glyph name="o" format="1">
  <advance width="1284"></advance>
  <unicode hex="006F"></unicode>
  <outline>
    <contour>
      <point x="641" y="117" type="curve" smooth="yes"></point>
      <point x="371" y="117"></point>
      <point x="293" y="352"></point>
      <point x="293" y="582" type="curve" smooth="yes"></point>
      <point x="293" y="812"></point>
      <point x="370" y="1051"></point>
      <point x="641" y="1051" type="curve" smooth="yes"></point>
      <point x="912" y="1051"></point>
      <point x="989" y="812"></point>
      <point x="989" y="582" type="curve" smooth="yes"></point>
      <point x="989" y="351"></point>
      <point x="913" y="117"></point>
    </contour>
    <contour>
      <point x="641" y="-20" type="curve" smooth="yes"></point>
      <point x="1000" y="-20"></point>
      <point x="1172" y="248"></point>
      <point x="1172" y="582" type="curve" smooth="yes"></point>
      <point x="1172" y="915"></point>
      <point x="1001" y="1190"></point>
      <point x="641" y="1190" type="curve" smooth="yes"></point>
      <point x="282" y="1190"></point>
      <point x="111" y="914"></point>
      <point x="111" y="582" type="curve" smooth="yes"></point>
      <point x="111" y="249"></point>
      <point x="282" y="-20"></point>
    </contour>
  </outline>
</glyph>
<glyph name="p" format="1">
  <advance width="1252"/>
  <unicode hex="0070"/>
  <outline>
    <contour>
      <point x="133" y="-487" type="line"/>
      <point x="323" y="-465" type="line"/>
      <point x="323" y="164" type="line"/>
      <point x="410" y="58"/>
      <point x="538" y="-20"/>
      <point x="677" y="-20" type="curve" smooth="yes"/>
      <point x="1014" y="-20"/>
      <point x="1147" y="291"/>
      <point x="1147" y="584" type="curve" smooth="yes"/>
      <point x="1147" y="882"/>
      <point x="1016" y="1190"/>
      <point x="672" y="1190" type="curve" smooth="yes"/>
      <point x="521" y="1190"/>
      <point x="394" y="1088"/>
      <point x="307" y="971" type="curve"/>
      <point x="274" y="1169" type="line"/>
      <point x="133" y="1169" type="line"/>
    </contour>
    <contour>
      <point x="658" y="117" type="curve" smooth="yes"/>
      <point x="557" y="117"/>
      <point x="388" y="202"/>
      <point x="323" y="285" type="curve"/>
      <point x="323" y="890" type="line"/>
      <point x="400" y="972"/>
      <point x="563" y="1047"/>
      <point x="673" y="1047" type="curve" smooth="yes"/>
      <point x="929" y="1047"/>
      <point x="965" y="759"/>
      <point x="965" y="567" type="curve" smooth="yes"/>
      <point x="965" y="355"/>
      <point x="900" y="117"/>
    </contour>
  </outline>
</glyph>
<glyph name="q" format="1">
  <advance width="1252"/>
  <unicode hex="0071"/>
  <outline>
    <contour>
      <point x="929" y="-502" type="line"/>
      <point x="1119" y="-479" type="line"/>
      <point x="1119" y="1169" type="line"/>
      <point x="980" y="1169" type="line"/>
      <point x="943" y="975" type="line"/>
      <point x="862" y="1097"/>
      <point x="712" y="1190"/>
      <point x="563" y="1190" type="curve" smooth="yes"/>
      <point x="221" y="1190"/>
      <point x="102" y="878"/>
      <point x="102" y="584" type="curve" smooth="yes"/>
      <point x="102" y="288"/>
      <point x="233" y="-20"/>
      <point x="573" y="-20" type="curve" smooth="yes"/>
      <point x="711" y="-20"/>
      <point x="845" y="46"/>
      <point x="929" y="153" type="curve"/>
    </contour>
    <contour>
      <point x="592" y="117" type="curve" smooth="yes"/>
      <point x="352" y="117"/>
      <point x="284" y="385"/>
      <point x="284" y="584" type="curve" smooth="yes"/>
      <point x="284" y="774"/>
      <point x="330" y="1047"/>
      <point x="576" y="1047" type="curve" smooth="yes"/>
      <point x="696" y="1047"/>
      <point x="845" y="975"/>
      <point x="929" y="891" type="curve"/>
      <point x="929" y="268" type="line"/>
      <point x="847" y="184"/>
      <point x="706" y="117"/>
    </contour>
  </outline>
</glyph>
<glyph name="r" format="1">
  <advance width="804"></advance>
  <unicode hex="0072"></unicode>
  <outline>
    <contour>
      <point x="173" y="0" type="line"></point>
      <point x="363" y="0" type="line"></point>
      <point x="363" y="894" type="line"></point>
      <point x="438" y="966"></point>
      <point x="681" y="1026"></point>
      <point x="747" y="1026" type="curve"></point>
      <point x="728" y="1180" type="line"></point>
      <point x="611" y="1180"></point>
      <point x="428" y="1083"></point>
      <point x="346" y="977" type="curve"></point>
      <point x="316" y="1169" type="line"></point>
      <point x="173" y="1169" type="line"></point>
    </contour>
  </outline>
</glyph>
<glyph name="s" format="1">
  <advance width="1032"></advance>
  <unicode hex="0073"></unicode>
  <outline>
    <contour>
      <point x="510" y="-20" type="curve" smooth="yes"></point>
      <point x="729" y="-20"></point>
      <point x="937" y="74"></point>
      <point x="937" y="322" type="curve" smooth="yes"></point>
      <point x="937" y="530"></point>
      <point x="820" y="608"></point>
      <point x="649" y="662" type="curve" smooth="yes"></point>
      <point x="454" y="723" type="line" smooth="yes"></point>
      <point x="332" y="761"></point>
      <point x="286" y="806"></point>
      <point x="286" y="888" type="curve"></point>
      <point x="287" y="1023"></point>
      <point x="423" y="1054"></point>
      <point x="529" y="1054" type="curve" smooth="yes"></point>
      <point x="641" y="1054"></point>
      <point x="741" y="1012"></point>
      <point x="829" y="947" type="curve"></point>
      <point x="886" y="1079" type="line"></point>
      <point x="802" y="1147"></point>
      <point x="643" y="1190"></point>
      <point x="513" y="1190" type="curve" smooth="yes"></point>
      <point x="323" y="1190"></point>
      <point x="125" y="1095"></point>
      <point x="125" y="873" type="curve" smooth="yes"></point>
      <point x="125" y="693"></point>
      <point x="226" y="619"></point>
      <point x="387" y="569" type="curve" smooth="yes"></point>
      <point x="589" y="506" type="line" smooth="yes"></point>
      <point x="710" y="468"></point>
      <point x="769" y="431"></point>
      <point x="769" y="310" type="curve" smooth="yes"></point>
      <point x="769" y="152"></point>
      <point x="631" y="121"></point>
      <point x="521" y="121" type="curve" smooth="yes"></point>
      <point x="415" y="121"></point>
      <point x="288" y="174"></point>
      <point x="197" y="237" type="curve"></point>
      <point x="142" y="99" type="line"></point>
      <point x="225" y="31"></point>
      <point x="403" y="-20"></point>
    </contour>
  </outline>
</glyph>
<glyph name="t" format="1">
  <advance width="864"></advance>
  <unicode hex="0074"></unicode>
  <outline>
    <contour>
      <point x="782" y="35" type="curve"></point>
      <point x="748" y="160" type="line"></point>
      <point x="684" y="140"></point>
      <point x="633" y="132"></point>
      <point x="592" y="132" type="curve" smooth="yes"></point>
      <point x="454" y="132"></point>
      <point x="436" y="227"></point>
      <point x="436" y="298" type="curve" smooth="yes"></point>
      <point x="436" y="1065" type="line"></point>
      <point x="769" y="1065" type="line"></point>
      <point x="769" y="1169" type="line"></point>
      <point x="436" y="1169" type="line"></point>
      <point x="436" y="1576" type="line"></point>
      <point x="274" y="1530" type="line"></point>
      <point x="250" y="1169" type="line"></point>
      <point x="63" y="1169" type="line"></point>
      <point x="63" y="1065" type="line"></point>
      <point x="246" y="1065" type="line"></point>
      <point x="246" y="300" type="line" smooth="yes"></point>
      <point x="246" y="116"></point>
      <point x="356" y="-14"></point>
      <point x="545" y="-14" type="curve" smooth="yes"></point>
      <point x="627" y="-14"></point>
      <point x="708" y="0"></point>
    </contour>
  </outline>
</glyph>
<glyph name="u" format="1">
  <advance width="1260"></advance>
  <unicode hex="0075"></unicode>
  <outline>
    <contour>
      <point x="546" y="-20" type="curve"></point>
      <point x="722" y="-18"></point>
      <point x="857" y="86"></point>
      <point x="927" y="171" type="curve"></point>
      <point x="954" y="0" type="line"></point>
      <point x="1095" y="0" type="line"></point>
      <point x="1095" y="1169" type="line"></point>
      <point x="905" y="1169" type="line"></point>
      <point x="906" y="274" type="line"></point>
      <point x="811" y="179"></point>
      <point x="693" y="117"></point>
      <point x="561" y="117" type="curve" smooth="yes"></point>
      <point x="373" y="117"></point>
      <point x="336" y="276"></point>
      <point x="336" y="442" type="curve" smooth="yes"></point>
      <point x="336" y="1169" type="line"></point>
      <point x="146" y="1169" type="line"></point>
      <point x="146" y="442" type="line" smooth="yes"></point>
      <point x="146" y="165"></point>
      <point x="264" y="-20"></point>
    </contour>
  </outline>
</glyph>
<glyph name="v" format="1">
  <advance width="1152"></advance>
  <unicode hex="0076"></unicode>
  <outline>
    <contour>
      <point x="486" y="0" type="line"></point>
      <point x="667" y="0" type="line"></point>
      <point x="1080" y="1169" type="line"></point>
      <point x="895" y="1169" type="line"></point>
      <point x="580" y="163" type="line"></point>
      <point x="246" y="1169" type="line"></point>
      <point x="63" y="1169" type="line"></point>
    </contour>
  </outline>
</glyph>
<glyph name="w" format="1">
  <advance width="1608"></advance>
  <unicode hex="0077"></unicode>
  <outline>
    <contour>
      <point x="343" y="0" type="line"></point>
      <point x="539" y="0" type="line"></point>
      <point x="802" y="1003" type="line"></point>
      <point x="1068" y="0" type="line"></point>
      <point x="1265" y="0" type="line"></point>
      <point x="1579" y="1169" type="line"></point>
      <point x="1400" y="1169" type="line"></point>
      <point x="1172" y="152" type="line"></point>
      <point x="903" y="1169" type="line"></point>
      <point x="701" y="1169" type="line"></point>
      <point x="444" y="154" type="line"></point>
      <point x="196" y="1169" type="line"></point>
      <point x="22" y="1169" type="line"></point>
    </contour>
  </outline>
</glyph>
<glyph name="x" format="1">
  <advance width="1025"/>
  <unicode hex="0078"/>
  <outline>
    <contour>
      <point x="28" y="0" type="line"/>
      <point x="221" y="0" type="line"/>
      <point x="518" y="467" type="line"/>
      <point x="805" y="0" type="line"/>
      <point x="996" y="0" type="line"/>
      <point x="612" y="584" type="line"/>
      <point x="1003" y="1169" type="line"/>
      <point x="811" y="1169" type="line"/>
      <point x="512" y="712" type="line"/>
      <point x="215" y="1169" type="line"/>
      <point x="22" y="1169" type="line"/>
      <point x="418" y="584" type="line"/>
    </contour>
  </outline>
</glyph>
<glyph name="y" format="1">
  <advance width="1152"></advance>
  <unicode hex="0079"></unicode>
  <outline>
    <contour>
      <point x="218" y="-439" type="line"></point>
      <point x="495" y="-439"></point>
      <point x="572" y="-259"></point>
      <point x="652" y="-37" type="curve" smooth="yes"></point>
      <point x="1089" y="1169" type="line"></point>
      <point x="894" y="1169" type="line"></point>
      <point x="593" y="220" type="line"></point>
      <point x="238" y="1169" type="line"></point>
      <point x="56" y="1169" type="line"></point>
      <point x="507" y="23" type="line"></point>
      <point x="445" y="-186"></point>
      <point x="396" y="-290"></point>
      <point x="171" y="-302" type="curve"></point>
    </contour>
  </outline>
</glyph>
<glyph name="z" format="1">
  <advance width="966"/>
  <unicode hex="007A"/>
  <outline>
    <contour>
      <point x="98" y="0" type="line"/>
      <point x="876" y="0" type="line"/>
      <point x="876" y="145" type="line"/>
      <point x="274" y="145" type="line"/>
      <point x="876" y="1004" type="line"/>
      <point x="876" y="1169" type="line"/>
      <point x="128" y="1169" type="line"/>
      <point x="128" y="1029" type="line"/>
      <point x="712" y="1029" type="line"/>
      <point x="98" y="166" type="line"/>
    </contour>
  </outline>
</glyph>
<glyph name="braceleft" format="1">
  <advance width="948"></advance>
  <unicode hex="007B"></unicode>
  <outline>
    <contour>
      <point x="835" y="-209" type="curve"></point>
      <point x="836" y="-40" type="line"></point>
      <point x="380" y="-43"></point>
      <point x="808" y="547"></point>
      <point x="355" y="665" type="curve"></point>
      <point x="808" y="783"></point>
      <point x="380" y="1373"></point>
      <point x="836" y="1370" type="curve"></point>
      <point x="835" y="1539" type="line"></point>
      <point x="168" y="1540"></point>
      <point x="649" y="758"></point>
      <point x="188" y="759" type="curve"></point>
      <point x="188" y="571" type="line"></point>
      <point x="649" y="572"></point>
      <point x="168" y="-210"></point>
    </contour>
  </outline>
</glyph>
<glyph name="sterling" format="1">
  <advance width="1152"></advance>
  <unicode hex="00A3"></unicode>
  <outline>
    <contour>
      <point x="168" y="0" type="line"></point>
      <point x="965" y="0" type="line"></point>
      <point x="965" y="132" type="line"></point>
      <point x="349" y="132" type="line"></point>
      <point x="435" y="249"></point>
      <point x="468" y="464"></point>
      <point x="468" y="603" type="curve"></point>
      <point x="896" y="603" type="line"></point>
      <point x="896" y="706" type="line"></point>
      <point x="468" y="706" type="line"></point>
      <point x="403" y="775"></point>
      <point x="352" y="862"></point>
      <point x="352" y="959" type="curve" smooth="yes"></point>
      <point x="352" y="1126"></point>
      <point x="469" y="1180"></point>
      <point x="620" y="1180" type="curve" smooth="yes"></point>
      <point x="739" y="1180"></point>
      <point x="845" y="1139"></point>
      <point x="950" y="1088" type="curve"></point>
      <point x="1000" y="1219" type="line"></point>
      <point x="882" y="1294"></point>
      <point x="696" y="1322"></point>
      <point x="561" y="1322" type="curve" smooth="yes"></point>
      <point x="357" y="1322"></point>
      <point x="170" y="1167"></point>
      <point x="170" y="956" type="curve" smooth="yes"></point>
      <point x="170" y="875"></point>
      <point x="219" y="757"></point>
      <point x="285" y="706" type="curve"></point>
      <point x="113" y="706" type="line"></point>
      <point x="113" y="603" type="line"></point>
      <point x="310" y="603" type="line"></point>
      <point x="310" y="463"></point>
      <point x="267" y="236"></point>
      <point x="168" y="126" type="curve"></point>
    </contour>
  </outline>
</glyph>
<glyph name="section" format="1">
  <advance width="1128"></advance>
  <unicode hex="00A7"></unicode>
  <outline>
    <contour>
      <point x="535" y="-96" type="curve" smooth="yes"></point>
      <point x="736" y="-96"></point>
      <point x="951" y="-16"></point>
      <point x="951" y="219" type="curve" smooth="yes"></point>
      <point x="951" y="386"></point>
      <point x="851" y="470"></point>
      <point x="700" y="522" type="curve"></point>
      <point x="823" y="531"></point>
      <point x="949" y="610"></point>
      <point x="949" y="746" type="curve" smooth="yes"></point>
      <point x="949" y="948.5"></point>
      <point x="791" y="1027.5"></point>
      <point x="633" y="1082.5" type="curve" smooth="yes"></point>
      <point x="610" y="1090.47940329"></point>
      <point x="587" y="1097.9536492"></point>
      <point x="564" y="1105.22657867" type="curve" smooth="yes"></point>
      <point x="432" y="1148.0841046"></point>
      <point x="317" y="1183.95102637"></point>
      <point x="317" y="1275" type="curve" smooth="yes"></point>
      <point x="317" y="1402"></point>
      <point x="447" y="1424"></point>
      <point x="548" y="1424" type="curve" smooth="yes"></point>
      <point x="655" y="1424"></point>
      <point x="758" y="1381"></point>
      <point x="842" y="1316" type="curve"></point>
      <point x="900" y="1452" type="line"></point>
      <point x="827" y="1516"></point>
      <point x="634" y="1569"></point>
      <point x="538" y="1569" type="curve" smooth="yes"></point>
      <point x="365" y="1569"></point>
      <point x="161" y="1487"></point>
      <point x="161" y="1285" type="curve" smooth="yes"></point>
      <point x="161" y="1115"></point>
      <point x="269" y="1051"></point>
      <point x="416" y="995" type="curve"></point>
      <point x="292" y="980"></point>
      <point x="161" y="913"></point>
      <point x="161" y="771" type="curve" smooth="yes"></point>
      <point x="161" y="560.0"></point>
      <point x="316" y="495.5"></point>
      <point x="471" y="447.5" type="curve" smooth="yes"></point>
      <point x="497" y="439.559142828"></point>
      <point x="522" y="432.069867257"></point>
      <point x="547" y="424.443571204" type="curve" smooth="yes"></point>
      <point x="673" y="385.97129092"></point>
      <point x="782" y="344.01199396"></point>
      <point x="782" y="223" type="curve" smooth="yes"></point>
      <point x="782" y="82"></point>
      <point x="637" y="50"></point>
      <point x="523" y="50" type="curve" smooth="yes"></point>
      <point x="426" y="50"></point>
      <point x="305" y="93"></point>
      <point x="232" y="158" type="curve"></point>
      <point x="171" y="20" type="line"></point>
      <point x="250" y="-45"></point>
      <point x="434" y="-96"></point>
    </contour>
    <contour>
      <point x="550" y="600" type="curve" smooth="yes"></point>
      <point x="446" y="600"></point>
      <point x="315" y="623"></point>
      <point x="315" y="753" type="curve" smooth="yes"></point>
      <point x="315" y="886"></point>
      <point x="443" y="906"></point>
      <point x="550" y="906" type="curve" smooth="yes"></point>
      <point x="658" y="906"></point>
      <point x="789" y="889"></point>
      <point x="789" y="751" type="curve" smooth="yes"></point>
      <point x="789" y="624"></point>
      <point x="650" y="600"></point>
    </contour>
  </outline>
</glyph>
<glyph name="copyright" format="1">
  <advance width="1968"></advance>
  <unicode hex="00A9"></unicode>
  <outline>
    <contour>
      <point x="977" y="336" type="curve" smooth="yes"></point>
      <point x="1075" y="336"></point>
      <point x="1171" y="370"></point>
      <point x="1257" y="414" type="curve"></point>
      <point x="1257" y="540" type="line"></point>
      <point x="1166" y="494"></point>
      <point x="1066" y="464"></point>
      <point x="963" y="464" type="curve" smooth="yes"></point>
      <point x="703" y="464"></point>
      <point x="617" y="575"></point>
      <point x="617" y="831" type="curve" smooth="yes"></point>
      <point x="617" y="1087"></point>
      <point x="703" y="1198"></point>
      <point x="963" y="1198" type="curve" smooth="yes"></point>
      <point x="1066" y="1198"></point>
      <point x="1166" y="1168"></point>
      <point x="1257" y="1122" type="curve"></point>
      <point x="1257" y="1248" type="line"></point>
      <point x="1171" y="1292"></point>
      <point x="1075" y="1326"></point>
      <point x="977" y="1326" type="curve" smooth="yes"></point>
      <point x="644" y="1326"></point>
      <point x="455" y="1168"></point>
      <point x="455" y="831" type="curve" smooth="yes"></point>
      <point x="455" y="494"></point>
      <point x="644" y="336"></point>
    </contour>
    <contour>
      <point x="940" y="-23" type="curve" smooth="yes"></point>
      <point x="1419" y="-23"></point>
      <point x="1815" y="344"></point>
      <point x="1815" y="830" type="curve" smooth="yes"></point>
      <point x="1815" y="1308"></point>
      <point x="1413" y="1687"></point>
      <point x="940" y="1687" type="curve" smooth="yes"></point>
      <point x="467" y="1687"></point>
      <point x="65" y="1308"></point>
      <point x="65" y="830" type="curve" smooth="yes"></point>
      <point x="65" y="342"></point>
      <point x="459" y="-23"></point>
    </contour>
    <contour>
      <point x="940" y="101" type="curve" smooth="yes"></point>
      <point x="521" y="101"></point>
      <point x="213" y="410"></point>
      <point x="213" y="829" type="curve" smooth="yes"></point>
      <point x="213" y="1230"></point>
      <point x="537" y="1562"></point>
      <point x="940" y="1562" type="curve" smooth="yes"></point>
      <point x="1342" y="1562"></point>
      <point x="1667" y="1229"></point>
      <point x="1667" y="829" type="curve" smooth="yes"></point>
      <point x="1667" y="410"></point>
      <point x="1359" y="101"></point>
    </contour>
  </outline>
</glyph>
<glyph name="registered" format="1">
  <advance width="1464"></advance>
  <unicode hex="00AE"></unicode>
  <outline>
    <contour>
      <point x="871" y="785" type="line"></point>
      <point x="903" y="802"></point>
      <point x="937" y="823"></point>
      <point x="971" y="836" type="curve"></point>
      <point x="791" y="1086" type="line"></point>
      <point x="895" y="1111"></point>
      <point x="957" y="1146"></point>
      <point x="957" y="1261" type="curve" smooth="yes"></point>
      <point x="957" y="1394"></point>
      <point x="760" y="1408"></point>
      <point x="668" y="1408" type="curve" smooth="yes"></point>
      <point x="548" y="1408" type="line"></point>
      <point x="548" y="807" type="line"></point>
      <point x="654" y="807" type="line"></point>
      <point x="654" y="1068" type="line"></point>
      <point x="697" y="1068" type="line"></point>
    </contour>
    <contour>
      <point x="727" y="641" type="curve" smooth="yes"></point>
      <point x="461" y="641"></point>
      <point x="247" y="834"></point>
      <point x="247" y="1105" type="curve" smooth="yes"></point>
      <point x="247" y="1375"></point>
      <point x="461" y="1572"></point>
      <point x="727" y="1572" type="curve" smooth="yes"></point>
      <point x="992" y="1572"></point>
      <point x="1210" y="1376"></point>
      <point x="1210" y="1106" type="curve" smooth="yes"></point>
      <point x="1210" y="837"></point>
      <point x="991" y="641"></point>
    </contour>
    <contour>
      <point x="728" y="542" type="curve" smooth="yes"></point>
      <point x="1047" y="542"></point>
      <point x="1318" y="781"></point>
      <point x="1318" y="1108" type="curve" smooth="yes"></point>
      <point x="1318" y="1434"></point>
      <point x="1046" y="1674"></point>
      <point x="728" y="1674" type="curve" smooth="yes"></point>
      <point x="411" y="1674"></point>
      <point x="139" y="1433"></point>
      <point x="139" y="1108" type="curve" smooth="yes"></point>
      <point x="139" y="781"></point>
      <point x="408" y="542"></point>
    </contour>
    <contour>
      <point x="657" y="1150" type="line"></point>
      <point x="657" y="1326" type="line"></point>
      <point x="707" y="1326"></point>
      <point x="853" y="1334"></point>
      <point x="853" y="1256" type="curve" smooth="yes"></point>
      <point x="853" y="1164"></point>
      <point x="782" y="1150"></point>
      <point x="705" y="1150" type="curve" smooth="yes"></point>
    </contour>
  </outline>
</glyph>
<glyph name="macron" format="1">
  <advance width="1008"></advance>
  <unicode hex="00AF"></unicode>
  <outline>
    <contour>
      <point x="160" y="98" type="line"></point>
      <point x="842" y="98" type="line"></point>
      <point x="842" y="215" type="line"></point>
      <point x="160" y="215" type="line"></point>
    </contour>
  </outline>
</glyph>
<glyph name="plusminus" format="1">
  <advance width="1044"></advance>
  <unicode hex="00B1"></unicode>
  <outline>
    <contour>
      <point x="452" y="174" type="line"></point>
      <point x="593" y="174" type="line"></point>
      <point x="593" y="518" type="line"></point>
      <point x="907" y="518" type="line"></point>
      <point x="907" y="651" type="line"></point>
      <point x="593" y="651" type="line"></point>
      <point x="593" y="995" type="line"></point>
      <point x="452" y="995" type="line"></point>
      <point x="452" y="651" type="line"></point>
      <point x="139" y="651" type="line"></point>
      <point x="139" y="518" type="line"></point>
      <point x="452" y="518" type="line"></point>
    </contour>
    <contour>
      <point x="173" y="-55" type="line"></point>
      <point x="874" y="-55" type="line"></point>
      <point x="874" y="88" type="line"></point>
      <point x="173" y="88" type="line"></point>
    </contour>
  </outline>
</glyph>
<glyph name="uni00B2" format="1">
  <advance width="777"/>
  <unicode hex="00B2"/>
  <outline>
    <contour>
      <point x="51" y="668" type="line"/>
      <point x="689" y="668" type="line"/>
      <point x="689" y="820" type="line"/>
      <point x="283" y="820" type="line"/>
      <point x="311.473366886" y="844.136363983"/>
      <point x="344.640243096" y="870.157243073"/>
      <point x="379.718137892" y="898.022408489" type="curve" smooth="yes"/>
      <point x="530.665384954" y="1017.93182816"/>
      <point x="717.0" y="1171.99289834"/>
      <point x="717" y="1357" type="curve" smooth="yes"/>
      <point x="717" y="1551"/>
      <point x="549" y="1638"/>
      <point x="374" y="1638" type="curve" smooth="yes"/>
      <point x="271" y="1638"/>
      <point x="165" y="1625"/>
      <point x="68" y="1588" type="curve"/>
      <point x="68" y="1443" type="line"/>
      <point x="160" y="1468"/>
      <point x="260" y="1495"/>
      <point x="356" y="1495" type="curve" smooth="yes"/>
      <point x="446" y="1495"/>
      <point x="545" y="1460"/>
      <point x="545" y="1354" type="curve" smooth="yes"/>
      <point x="545.0" y="1251.87187177"/>
      <point x="413.828213384" y="1114.45387201"/>
      <point x="283.646078422" y="999.374534859" type="curve" smooth="yes"/>
      <point x="188.207336085" y="915.007911051"/>
      <point x="93.3004925251" y="842.647438347"/>
      <point x="51" y="805" type="curve"/>
    </contour>
  </outline>
</glyph>
<glyph name="uni00B3" format="1">
  <advance width="996"></advance>
  <unicode hex="00B3"></unicode>
  <outline>
    <contour>
      <point x="467" y="540" type="curve" smooth="yes"></point>
      <point x="645" y="540"></point>
      <point x="856" y="628"></point>
      <point x="856" y="835" type="curve" smooth="yes"></point>
      <point x="856" y="1006"></point>
      <point x="739" y="1111"></point>
      <point x="580" y="1142" type="curve"></point>
      <point x="714" y="1143"></point>
      <point x="825" y="1263"></point>
      <point x="825" y="1394" type="curve" smooth="yes"></point>
      <point x="825" y="1601"></point>
      <point x="629" y="1677"></point>
      <point x="452" y="1677" type="curve" smooth="yes"></point>
      <point x="360" y="1677"></point>
      <point x="249" y="1652"></point>
      <point x="166" y="1611" type="curve"></point>
      <point x="213" y="1484" type="line"></point>
      <point x="285" y="1520"></point>
      <point x="367" y="1541"></point>
      <point x="447" y="1541" type="curve" smooth="yes"></point>
      <point x="554" y="1541"></point>
      <point x="671" y="1511"></point>
      <point x="671" y="1383" type="curve" smooth="yes"></point>
      <point x="671" y="1255"></point>
      <point x="535" y="1207"></point>
      <point x="428" y="1207" type="curve"></point>
      <point x="428" y="1072" type="line"></point>
      <point x="559" y="1057"></point>
      <point x="690" y="1005"></point>
      <point x="690" y="853" type="curve" smooth="yes"></point>
      <point x="690" y="733"></point>
      <point x="578" y="672"></point>
      <point x="470" y="672" type="curve" smooth="yes"></point>
      <point x="372" y="672"></point>
      <point x="277" y="701"></point>
      <point x="190" y="745" type="curve"></point>
      <point x="139" y="618" type="line"></point>
      <point x="222" y="564"></point>
      <point x="369" y="540"></point>
    </contour>
  </outline>
</glyph>
<glyph name="paragraph" format="1">
  <advance width="1308"></advance>
  <unicode hex="00B6"></unicode>
  <outline>
    <contour>
      <point x="595" y="0" type="line"></point>
      <point x="785" y="0" type="line"></point>
      <point x="785" y="1428" type="line"></point>
      <point x="920" y="1428" type="line"></point>
      <point x="920" y="0" type="line"></point>
      <point x="1106" y="0" type="line"></point>
      <point x="1106" y="1578" type="line"></point>
      <point x="640" y="1578" type="line" smooth="yes"></point>
      <point x="407" y="1578"></point>
      <point x="106" y="1551"></point>
      <point x="106" y="1250" type="curve" smooth="yes"></point>
      <point x="106" y="971"></point>
      <point x="365" y="905"></point>
      <point x="595" y="905" type="curve"></point>
    </contour>
  </outline>
</glyph>
<glyph name="periodcentered" format="1">
  <advance width="660"></advance>
  <unicode hex="00B7"></unicode>
  <outline>
    <contour>
      <point x="327" y="535" type="curve" smooth="yes"></point>
      <point x="392" y="535"></point>
      <point x="435" y="588"></point>
      <point x="435" y="650" type="curve" smooth="yes"></point>
      <point x="435" y="712"></point>
      <point x="392" y="765"></point>
      <point x="327" y="765" type="curve" smooth="yes"></point>
      <point x="264" y="765"></point>
      <point x="215" y="712"></point>
      <point x="215" y="650" type="curve" smooth="yes"></point>
      <point x="215" y="587"></point>
      <point x="263" y="535"></point>
    </contour>
  </outline>
</glyph>
<glyph name="uni00B9" format="1">
  <advance width="852"></advance>
  <unicode hex="00B9"></unicode>
  <outline>
    <contour>
      <point x="471" y="478" type="line"></point>
      <point x="640" y="478" type="line"></point>
      <point x="640" y="1414" type="line"></point>
      <point x="500" y="1440" type="line"></point>
      <point x="263" y="1345" type="line"></point>
      <point x="300" y="1232" type="line"></point>
      <point x="471" y="1304" type="line"></point>
    </contour>
  </outline>
</glyph>
<glyph name="onequarter" format="1">
  <advance width="1572"></advance>
  <unicode hex="00BC"></unicode>
  <outline>
    <contour>
      <point x="1215" y="-250" type="line"></point>
      <point x="1360" y="-227" type="line"></point>
      <point x="1360" y="34" type="line"></point>
      <point x="1511" y="34" type="line"></point>
      <point x="1511" y="145" type="line"></point>
      <point x="1360" y="145" type="line"></point>
      <point x="1360" y="915" type="line"></point>
      <point x="1232" y="946" type="line"></point>
      <point x="668" y="144" type="line"></point>
      <point x="690" y="34" type="line"></point>
      <point x="1215" y="34" type="line"></point>
    </contour>
    <contour>
      <point x="201" y="568" type="line"></point>
      <point x="361" y="568" type="line"></point>
      <point x="361" y="1503" type="line"></point>
      <point x="231" y="1529" type="line"></point>
      <point x="-3" y="1434" type="line"></point>
      <point x="31" y="1341" type="line"></point>
      <point x="201" y="1413" type="line"></point>
    </contour>
    <contour>
      <point x="183" y="-123" type="line"></point>
      <point x="1224" y="1272" type="line"></point>
      <point x="1102" y="1365" type="line"></point>
      <point x="63" y="-30" type="line"></point>
    </contour>
    <contour>
      <point x="827" y="144" type="line"></point>
      <point x="959" y="329"></point>
      <point x="1088" y="515"></point>
      <point x="1215" y="703" type="curve"></point>
      <point x="1215" y="144" type="line"></point>
    </contour>
  </outline>
</glyph>
<glyph name="multiply" format="1">
  <advance width="1056"></advance>
  <unicode hex="00D7"></unicode>
  <outline>
    <contour>
      <point x="207" y="127" type="line"></point>
      <point x="524" y="444" type="line"></point>
      <point x="841" y="127" type="line"></point>
      <point x="943" y="229" type="line"></point>
      <point x="626" y="546" type="line"></point>
      <point x="943" y="863" type="line"></point>
      <point x="841" y="965" type="line"></point>
      <point x="524" y="648" type="line"></point>
      <point x="207" y="965" type="line"></point>
      <point x="105" y="863" type="line"></point>
      <point x="422" y="546" type="line"></point>
      <point x="105" y="229" type="line"></point>
    </contour>
  </outline>
</glyph>
<glyph name="germandbls" format="1">
  <advance width="1303"/>
  <unicode hex="00DF"/>
  <outline>
    <contour>
      <point x="481" y="-129" type="line"/>
      <point x="831" y="-129"/>
      <point x="1255" y="-37"/>
      <point x="1255" y="395" type="curve" smooth="yes"/>
      <point x="1255" y="661"/>
      <point x="1100" y="844"/>
      <point x="827" y="844" type="curve"/>
      <point x="1002" y="864"/>
      <point x="1073" y="1015"/>
      <point x="1073" y="1176" type="curve" smooth="yes"/>
      <point x="1073" y="1484"/>
      <point x="856" y="1579"/>
      <point x="580" y="1579" type="curve" smooth="yes"/>
      <point x="221" y="1579"/>
      <point x="110" y="1381"/>
      <point x="110" y="1046" type="curve" smooth="yes"/>
      <point x="111" y="-6" type="line"/>
      <point x="305" y="16" type="line"/>
      <point x="305" y="1018" type="line" smooth="yes"/>
      <point x="305" y="1240"/>
      <point x="306" y="1436"/>
      <point x="580" y="1436" type="curve" smooth="yes"/>
      <point x="748" y="1436"/>
      <point x="901" y="1399"/>
      <point x="901" y="1200" type="curve" smooth="yes"/>
      <point x="901.0" y="932.027344137"/>
      <point x="714.005644117" y="897.578156185"/>
      <point x="493.837690931" y="903.348274291" type="curve" smooth="yes"/>
      <point x="479.026316064" y="903.736447869"/>
      <point x="464.064808562" y="904.30664061"/>
      <point x="449" y="905" type="curve"/>
      <point x="449" y="774" type="line"/>
      <point x="690" y="774"/>
      <point x="1073" y="759"/>
      <point x="1073" y="432" type="curve" smooth="yes"/>
      <point x="1073" y="62"/>
      <point x="797" y="27"/>
      <point x="481" y="27" type="curve"/>
    </contour>
  </outline>
</glyph>
<glyph name="ae" format="1">
  <advance width="1802"/>
  <unicode hex="00E6"/>
  <outline>
    <contour>
      <point x="430" y="-23" type="curve" smooth="yes"/>
      <point x="604" y="-23"/>
      <point x="773" y="68"/>
      <point x="877" y="207" type="curve"/>
      <point x="969" y="45"/>
      <point x="1129" y="-23"/>
      <point x="1310" y="-23" type="curve" smooth="yes"/>
      <point x="1427" y="-23"/>
      <point x="1596" y="30"/>
      <point x="1690" y="99" type="curve"/>
      <point x="1628" y="244" type="line"/>
      <point x="1542" y="170"/>
      <point x="1436" y="127"/>
      <point x="1322" y="127" type="curve" smooth="yes"/>
      <point x="1041" y="127"/>
      <point x="976" y="322"/>
      <point x="976" y="567" type="curve"/>
      <point x="1736" y="567" type="line"/>
      <point x="1741" y="603"/>
      <point x="1744" y="640"/>
      <point x="1744" y="676" type="curve" smooth="yes"/>
      <point x="1744" y="958"/>
      <point x="1608" y="1190"/>
      <point x="1301" y="1190" type="curve" smooth="yes"/>
      <point x="1140" y="1190"/>
      <point x="979" y="1121"/>
      <point x="906" y="970" type="curve"/>
      <point x="851" y="1154"/>
      <point x="697" y="1190"/>
      <point x="524" y="1190" type="curve" smooth="yes"/>
      <point x="405" y="1190"/>
      <point x="196" y="1135"/>
      <point x="104" y="1057" type="curve"/>
      <point x="171" y="935" type="line"/>
      <point x="261" y="1001"/>
      <point x="424" y="1047"/>
      <point x="534" y="1047" type="curve" smooth="yes"/>
      <point x="775" y="1047"/>
      <point x="786" y="924"/>
      <point x="786" y="713" type="curve" smooth="yes"/>
      <point x="786" y="665" type="line"/>
      <point x="706" y="698"/>
      <point x="568" y="715"/>
      <point x="482" y="715" type="curve" smooth="yes"/>
      <point x="246" y="715"/>
      <point x="38" y="603"/>
      <point x="38" y="343" type="curve" smooth="yes"/>
      <point x="38" y="95"/>
      <point x="191" y="-23"/>
    </contour>
    <contour>
      <point x="477" y="119" type="curve" smooth="yes"/>
      <point x="309" y="119"/>
      <point x="229" y="183"/>
      <point x="229" y="356" type="curve" smooth="yes"/>
      <point x="229" y="556"/>
      <point x="379" y="590"/>
      <point x="551" y="590" type="curve" smooth="yes"/>
      <point x="630" y="590"/>
      <point x="708" y="582"/>
      <point x="786" y="569" type="curve"/>
      <point x="786" y="271" type="line"/>
      <point x="702" y="193"/>
      <point x="596" y="119"/>
    </contour>
    <contour>
      <point x="976" y="682" type="line"/>
      <point x="976.0" y="685.012138456"/>
      <point x="976.019613609" y="688.013776697"/>
      <point x="976.058921695" y="691.004613557" type="curve" smooth="yes"/>
      <point x="978.812290852" y="900.500386219"/>
      <point x="1078.19511883" y="1057.0"/>
      <point x="1302" y="1057" type="curve" smooth="yes"/>
      <point x="1506" y="1057"/>
      <point x="1576" y="902"/>
      <point x="1576" y="717" type="curve" smooth="yes"/>
      <point x="1576" y="682" type="line"/>
    </contour>
  </outline>
</glyph>
<glyph name="thorn" format="1">
  <advance width="1193"/>
  <unicode hex="00FE"/>
  <outline>
    <contour>
      <point x="123" y="-487" type="line"/>
      <point x="309" y="-465" type="line"/>
      <point x="309" y="117" type="line"/>
      <point x="395" y="10"/>
      <point x="537" y="-20"/>
      <point x="668" y="-20" type="curve" smooth="yes"/>
      <point x="1005" y="-20"/>
      <point x="1137" y="291"/>
      <point x="1137" y="584" type="curve" smooth="yes"/>
      <point x="1137" y="880"/>
      <point x="1009" y="1190"/>
      <point x="668" y="1190" type="curve" smooth="yes"/>
      <point x="527" y="1190"/>
      <point x="393" y="1113"/>
      <point x="307" y="1004" type="curve"/>
      <point x="307" y="1565" type="line"/>
      <point x="123" y="1565" type="line"/>
    </contour>
    <contour>
      <point x="676" y="123" type="curve" smooth="yes"/>
      <point x="557" y="123"/>
      <point x="408" y="165"/>
      <point x="316" y="244" type="curve"/>
      <point x="332" y="890" type="line"/>
      <point x="418" y="976"/>
      <point x="545" y="1047"/>
      <point x="668" y="1047" type="curve" smooth="yes"/>
      <point x="924" y="1047"/>
      <point x="955" y="735"/>
      <point x="955" y="543" type="curve" smooth="yes"/>
      <point x="955" y="366"/>
      <point x="893" y="123"/>
    </contour>
  </outline>
</glyph>
<glyph name="hbar" format="1">
  <advance width="1308"></advance>
  <unicode hex="0127"></unicode>
  <outline>
    <contour>
      <point x="166" y="0" type="line"></point>
      <point x="356" y="0" type="line"></point>
      <point x="356" y="888" type="line"></point>
      <point x="442" y="979"></point>
      <point x="607" y="1047"></point>
      <point x="731" y="1047" type="curve" smooth="yes"></point>
      <point x="925" y="1047"></point>
      <point x="963" y="892"></point>
      <point x="963" y="727" type="curve" smooth="yes"></point>
      <point x="963" y="0" type="line"></point>
      <point x="1153" y="0" type="line"></point>
      <point x="1153" y="727" type="line" smooth="yes"></point>
      <point x="1153" y="1018"></point>
      <point x="1038" y="1190"></point>
      <point x="745" y="1190" type="curve" smooth="yes"></point>
      <point x="582" y="1190"></point>
      <point x="462" y="1108"></point>
      <point x="356" y="1011" type="curve"></point>
      <point x="356" y="1357" type="line"></point>
      <point x="725" y="1357" type="line"></point>
      <point x="725" y="1474" type="line"></point>
      <point x="356" y="1474" type="line"></point>
      <point x="356" y="1616" type="line"></point>
      <point x="166" y="1579" type="line"></point>
      <point x="166" y="1474" type="line"></point>
      <point x="43" y="1474" type="line"></point>
      <point x="43" y="1357" type="line"></point>
      <point x="166" y="1357" type="line"></point>
    </contour>
  </outline>
</glyph>
<glyph name="IJ" format="1">
  <advance width="1476"></advance>
  <unicode hex="0132"></unicode>
  <outline>
    <contour>
      <point x="10" y="0" type="line"></point>
      <point x="603" y="0" type="line"></point>
      <point x="603" y="112" type="line"></point>
      <point x="397" y="112" type="line"></point>
      <point x="397" y="1461" type="line"></point>
      <point x="603" y="1461" type="line"></point>
      <point x="603" y="1579" type="line"></point>
      <point x="10" y="1579" type="line"></point>
      <point x="10" y="1461" type="line"></point>
      <point x="214" y="1461" type="line"></point>
      <point x="214" y="112" type="line"></point>
      <point x="10" y="112" type="line"></point>
    </contour>
    <contour>
      <point x="821" y="-90" type="line"></point>
      <point x="1229" y="-90"></point>
      <point x="1288" y="168"></point>
      <point x="1288" y="514" type="curve" smooth="yes"></point>
      <point x="1288" y="1579" type="line"></point>
      <point x="1096" y="1579" type="line"></point>
      <point x="1096" y="479" type="line" smooth="yes"></point>
      <point x="1096" y="203"></point>
      <point x="1082" y="83"></point>
      <point x="774" y="37" type="curve"></point>
    </contour>
  </outline>
</glyph>
<glyph name="OE" format="1">
  <advance width="2196"></advance>
  <unicode hex="0152"></unicode>
  <outline>
    <contour>
      <point x="788" y="-41" type="curve" smooth="yes"></point>
      <point x="1005" y="-41"></point>
      <point x="1150" y="31"></point>
      <point x="1244" y="149" type="curve"></point>
      <point x="1244" y="0" type="line"></point>
      <point x="2227" y="0" type="line"></point>
      <point x="2227" y="143" type="line"></point>
      <point x="1438" y="143" type="line"></point>
      <point x="1438" y="776" type="line"></point>
      <point x="2116" y="776" type="line"></point>
      <point x="2116" y="891" type="line"></point>
      <point x="1438" y="891" type="line"></point>
      <point x="1438" y="1436" type="line"></point>
      <point x="2214" y="1436" type="line"></point>
      <point x="2214" y="1579" type="line"></point>
      <point x="1244" y="1579" type="line"></point>
      <point x="1244" y="1418" type="line"></point>
      <point x="1148" y="1538"></point>
      <point x="999" y="1610"></point>
      <point x="774" y="1610" type="curve" smooth="yes"></point>
      <point x="289" y="1610"></point>
      <point x="134" y="1214"></point>
      <point x="134" y="784" type="curve" smooth="yes"></point>
      <point x="134" y="335"></point>
      <point x="290" y="-41"></point>
    </contour>
    <contour>
      <point x="799" y="111" type="curve" smooth="yes"></point>
      <point x="405" y="111"></point>
      <point x="334" y="458"></point>
      <point x="334" y="784" type="curve" smooth="yes"></point>
      <point x="334" y="1101"></point>
      <point x="397" y="1458"></point>
      <point x="790" y="1458" type="curve" smooth="yes"></point>
      <point x="1180" y="1458"></point>
      <point x="1244" y="1103"></point>
      <point x="1244" y="784" type="curve" smooth="yes"></point>
      <point x="1244" y="480"></point>
      <point x="1180" y="111"></point>
    </contour>
  </outline>
</glyph>
<glyph name="oe" format="1">
  <advance width="1944"></advance>
  <unicode hex="0153"></unicode>
  <outline>
    <contour>
      <point x="607" y="-20" type="curve" smooth="yes"></point>
      <point x="814" y="-20"></point>
      <point x="959" y="69"></point>
      <point x="1044" y="208" type="curve"></point>
      <point x="1127" y="69"></point>
      <point x="1270" y="-20"></point>
      <point x="1479" y="-20" type="curve" smooth="yes"></point>
      <point x="1601" y="-20"></point>
      <point x="1760" y="30"></point>
      <point x="1859" y="99" type="curve"></point>
      <point x="1797" y="244" type="line"></point>
      <point x="1712" y="165"></point>
      <point x="1604" y="117"></point>
      <point x="1491" y="117" type="curve" smooth="yes"></point>
      <point x="1225" y="117"></point>
      <point x="1144" y="326"></point>
      <point x="1142" y="563" type="curve"></point>
      <point x="1902" y="563" type="line"></point>
      <point x="1908" y="600"></point>
      <point x="1913" y="638"></point>
      <point x="1913" y="676" type="curve" smooth="yes"></point>
      <point x="1913" y="957"></point>
      <point x="1776" y="1190"></point>
      <point x="1470" y="1190" type="curve" smooth="yes"></point>
      <point x="1269" y="1190"></point>
      <point x="1130" y="1095"></point>
      <point x="1047" y="953" type="curve"></point>
      <point x="962" y="1097"></point>
      <point x="817" y="1190"></point>
      <point x="607" y="1190" type="curve" smooth="yes"></point>
      <point x="248" y="1190"></point>
      <point x="77" y="914"></point>
      <point x="77" y="582" type="curve" smooth="yes"></point>
      <point x="77" y="249"></point>
      <point x="248" y="-20"></point>
    </contour>
    <contour>
      <point x="607" y="117" type="curve" smooth="yes"></point>
      <point x="337" y="117"></point>
      <point x="259" y="352"></point>
      <point x="259" y="582" type="curve" smooth="yes"></point>
      <point x="259" y="812"></point>
      <point x="336" y="1051"></point>
      <point x="607" y="1051" type="curve" smooth="yes"></point>
      <point x="878" y="1051"></point>
      <point x="955" y="812"></point>
      <point x="955" y="582" type="curve" smooth="yes"></point>
      <point x="955" y="351"></point>
      <point x="879" y="117"></point>
    </contour>
    <contour>
      <point x="1146" y="682" type="line"></point>
      <point x="1163" y="882"></point>
      <point x="1243" y="1057"></point>
      <point x="1471" y="1057" type="curve" smooth="yes"></point>
      <point x="1676" y="1057"></point>
      <point x="1745" y="898"></point>
      <point x="1745" y="717" type="curve" smooth="yes"></point>
      <point x="1745" y="682" type="line"></point>
    </contour>
  </outline>
</glyph>
<glyph name="florin" format="1">
  <advance width="898"/>
  <unicode hex="0192"/>
  <outline>
    <contour>
      <point x="-20" y="-340" type="curve" smooth="yes"/>
      <point x="312" y="-340"/>
      <point x="360" y="-119"/>
      <point x="399" y="210" type="curve" smooth="yes"/>
      <point x="497" y="1034" type="line"/>
      <point x="845" y="1034" type="line"/>
      <point x="856" y="1139" type="line"/>
      <point x="508" y="1139" type="line"/>
      <point x="526.768486821" y="1314.17254367"/>
      <point x="496.923686389" y="1516.0"/>
      <point x="713" y="1516" type="curve" smooth="yes"/>
      <point x="772" y="1516"/>
      <point x="822" y="1480"/>
      <point x="860" y="1442" type="curve"/>
      <point x="936" y="1567" type="line"/>
      <point x="876" y="1615"/>
      <point x="785" y="1659"/>
      <point x="704" y="1659" type="curve" smooth="yes"/>
      <point x="400" y="1659"/>
      <point x="346" y="1406"/>
      <point x="318" y="1139" type="curve"/>
      <point x="123" y="1139" type="line"/>
      <point x="112" y="1034" type="line"/>
      <point x="307" y="1034" type="line"/>
      <point x="203" y="138" type="line" smooth="yes"/>
      <point x="179" y="-87"/>
      <point x="162" y="-183"/>
      <point x="10" y="-183" type="curve" smooth="yes"/>
      <point x="-30" y="-183"/>
      <point x="-81" y="-168"/>
      <point x="-146" y="-133" type="curve"/>
      <point x="-222" y="-258" type="line"/>
      <point x="-170" y="-301"/>
      <point x="-91" y="-340"/>
    </contour>
  </outline>
</glyph>
<glyph name="uni0237" format="1">
  <advance width="924"></advance>
  <unicode hex="0237"></unicode>
  <outline>
    <contour>
      <point x="346" y="-373" type="line"></point>
      <point x="584" y="-315"></point>
      <point x="677" y="-68"></point>
      <point x="677" y="154" type="curve" smooth="yes"></point>
      <point x="677" y="1169" type="line"></point>
      <point x="487" y="1169" type="line"></point>
      <point x="487" y="176" type="line" smooth="yes"></point>
      <point x="487" y="-14"></point>
      <point x="473" y="-147"></point>
      <point x="299" y="-258" type="curve"></point>
    </contour>
  </outline>
</glyph>
<glyph name="ogonek" format="1">
  <advance width="876"></advance>
  <unicode hex="02DB"></unicode>
  <outline>
    <contour>
      <point x="527" y="-578" type="curve" smooth="yes"></point>
      <point x="590" y="-578"></point>
      <point x="652" y="-560"></point>
      <point x="711" y="-540" type="curve"></point>
      <point x="711" y="-423" type="line"></point>
      <point x="671" y="-437"></point>
      <point x="586" y="-464"></point>
      <point x="547" y="-464" type="curve" smooth="yes"></point>
      <point x="447" y="-464"></point>
      <point x="411" y="-423"></point>
      <point x="411" y="-364" type="curve" smooth="yes"></point>
      <point x="411" y="-208"></point>
      <point x="661" y="76"></point>
      <point x="661" y="76" type="curve"></point>
      <point x="540" y="76" type="line"></point>
      <point x="503" y="33"></point>
      <point x="263" y="-235"></point>
      <point x="263" y="-414" type="curve" smooth="yes"></point>
      <point x="263" y="-508"></point>
      <point x="330" y="-578"></point>
    </contour>
  </outline>
</glyph>
<glyph name="uni0326" format="1">
  <advance width="720"></advance>
  <unicode hex="0326"></unicode>
  <outline>
    <contour>
      <point x="315" y="-659" type="line"></point>
      <point x="461" y="-617"></point>
      <point x="544" y="-516"></point>
      <point x="544" y="-362" type="curve" smooth="yes"></point>
      <point x="544" y="-113" type="line"></point>
      <point x="263" y="-113" type="line"></point>
      <point x="263" y="-406" type="line"></point>
      <point x="394" y="-406" type="line"></point>
      <point x="395" y="-501"></point>
      <point x="349" y="-536"></point>
      <point x="264" y="-565" type="curve"></point>
    </contour>
  </outline>
</glyph>
<glyph name="mu" format="1">
  <advance width="1308"></advance>
  <unicode hex="03BC"></unicode>
  <outline>
    <contour>
      <point x="340" y="-291" type="line"></point>
      <point x="340" y="113" type="line"></point>
      <point x="400" y="35"></point>
      <point x="478" y="-20"></point>
      <point x="580" y="-20" type="curve" smooth="yes"></point>
      <point x="739" y="-20"></point>
      <point x="873" y="54"></point>
      <point x="977" y="170" type="curve"></point>
      <point x="1001" y="16" type="line"></point>
      <point x="1147" y="16" type="line"></point>
      <point x="1147" y="1169" type="line"></point>
      <point x="939" y="1169" type="line"></point>
      <point x="939" y="274" type="line"></point>
      <point x="864" y="183"></point>
      <point x="707" y="123"></point>
      <point x="592" y="123" type="curve" smooth="yes"></point>
      <point x="397" y="123"></point>
      <point x="340" y="270"></point>
      <point x="340" y="442" type="curve" smooth="yes"></point>
      <point x="340" y="1169" type="line"></point>
      <point x="166" y="1169" type="line"></point>
      <point x="166" y="-291" type="line"></point>
    </contour>
  </outline>
</glyph>
<glyph name="quotesinglbase" format="1">
  <advance width="720"></advance>
  <unicode hex="201A"></unicode>
  <outline>
    <contour>
      <point x="267" y="-253" type="line"></point>
      <point x="413" y="-211"></point>
      <point x="496" y="-110"></point>
      <point x="496" y="44" type="curve" smooth="yes"></point>
      <point x="496" y="293" type="line"></point>
      <point x="215" y="293" type="line"></point>
      <point x="215" y="0" type="line"></point>
      <point x="346" y="0" type="line"></point>
      <point x="347" y="-95"></point>
      <point x="301" y="-130"></point>
      <point x="216" y="-159" type="curve"></point>
    </contour>
  </outline>
</glyph>
<glyph name="bullet" format="1">
  <advance width="972"></advance>
  <unicode hex="2022"></unicode>
  <outline>
    <contour>
      <point x="480" y="358" type="curve" smooth="yes"></point>
      <point x="670" y="358"></point>
      <point x="830" y="497"></point>
      <point x="830" y="692" type="curve" smooth="yes"></point>
      <point x="830" y="884"></point>
      <point x="667" y="1028"></point>
      <point x="480" y="1028" type="curve" smooth="yes"></point>
      <point x="291" y="1028"></point>
      <point x="132" y="885"></point>
      <point x="132" y="692" type="curve" smooth="yes"></point>
      <point x="132" y="500"></point>
      <point x="292" y="358"></point>
    </contour>
  </outline>
</glyph>
<glyph name="guilsinglleft" format="1">
  <advance width="936"></advance>
  <unicode hex="2039"></unicode>
  <outline>
    <contour>
      <point x="761" y="99" type="line"></point>
      <point x="761" y="306" type="line"></point>
      <point x="314" y="577" type="line"></point>
      <point x="761" y="842" type="line"></point>
      <point x="761" y="1049" type="line"></point>
      <point x="153" y="666" type="line"></point>
      <point x="153" y="481" type="line"></point>
    </contour>
  </outline>
</glyph>
<glyph name="guilsinglright" format="1">
  <advance width="936"></advance>
  <unicode hex="203A"></unicode>
  <outline>
    <contour>
      <point x="166" y="99" type="line"></point>
      <point x="774" y="481" type="line"></point>
      <point x="774" y="666" type="line"></point>
      <point x="166" y="1049" type="line"></point>
      <point x="166" y="842" type="line"></point>
      <point x="612" y="577" type="line"></point>
      <point x="166" y="306" type="line"></point>
    </contour>
  </outline>
</glyph>
<glyph name="fraction" format="1">
  <advance width="1260"></advance>
  <unicode hex="2044"></unicode>
  <outline>
    <contour>
      <point x="178" y="-123" type="line"></point>
      <point x="1219" y="1272" type="line"></point>
      <point x="1097" y="1365" type="line"></point>
      <point x="58" y="-30" type="line"></point>
    </contour>
  </outline>
</glyph>
<glyph name="uni2074" format="1">
  <advance width="1020"></advance>
  <unicode hex="2074"></unicode>
  <outline>
    <contour>
      <point x="652" y="442" type="line"></point>
      <point x="797" y="466" type="line"></point>
      <point x="797" y="726" type="line"></point>
      <point x="948" y="726" type="line"></point>
      <point x="948" y="838" type="line"></point>
      <point x="797" y="838" type="line"></point>
      <point x="797" y="1608" type="line"></point>
      <point x="669" y="1638" type="line"></point>
      <point x="105" y="836" type="line"></point>
      <point x="127" y="726" type="line"></point>
      <point x="652" y="726" type="line"></point>
    </contour>
    <contour>
      <point x="264" y="836" type="line"></point>
      <point x="396" y="1021"></point>
      <point x="525" y="1208"></point>
      <point x="652" y="1396" type="curve"></point>
      <point x="652" y="836" type="line"></point>
    </contour>
  </outline>
</glyph>
<glyph name="Euro" format="1">
  <advance width="1200"></advance>
  <unicode hex="20AC"></unicode>
  <outline>
    <contour>
      <point x="700" y="-38" type="curve" smooth="yes"></point>
      <point x="808" y="-38"></point>
      <point x="979" y="-13"></point>
      <point x="1070" y="55" type="curve"></point>
      <point x="1018" y="178" type="line"></point>
      <point x="938" y="130"></point>
      <point x="825" y="102"></point>
      <point x="733" y="102" type="curve" smooth="yes"></point>
      <point x="480" y="102"></point>
      <point x="414" y="369"></point>
      <point x="414" y="574" type="curve"></point>
      <point x="768" y="574" type="line"></point>
      <point x="768" y="696" type="line"></point>
      <point x="415" y="696" type="line"></point>
      <point x="416" y="733"></point>
      <point x="415" y="772"></point>
      <point x="420" y="809" type="curve"></point>
      <point x="825" y="809" type="line"></point>
      <point x="825" y="931" type="line"></point>
      <point x="431" y="931" type="line"></point>
      <point x="431" y="1152"></point>
      <point x="532" y="1308"></point>
      <point x="767" y="1308" type="curve" smooth="yes"></point>
      <point x="855" y="1308"></point>
      <point x="951" y="1288"></point>
      <point x="1032" y="1254" type="curve"></point>
      <point x="1075" y="1376" type="line"></point>
      <point x="986" y="1422"></point>
      <point x="869" y="1439"></point>
      <point x="770" y="1439" type="curve" smooth="yes"></point>
      <point x="449" y="1439"></point>
      <point x="288" y="1238"></point>
      <point x="269" y="931" type="curve"></point>
      <point x="65" y="931" type="line"></point>
      <point x="65" y="809" type="line"></point>
      <point x="245" y="809" type="line"></point>
      <point x="241" y="696" type="line"></point>
      <point x="81" y="696" type="line"></point>
      <point x="81" y="574" type="line"></point>
      <point x="245" y="574" type="line"></point>
      <point x="255" y="312"></point>
      <point x="386" y="-38"></point>
    </contour>
  </outline>
</glyph>
<glyph name="trademark" format="1">
  <advance width="1536"></advance>
  <unicode hex="2122"></unicode>
  <outline>
    <contour>
      <point x="648" y="624" type="line"></point>
      <point x="776" y="624" type="line"></point>
      <point x="776" y="1288" type="line"></point>
      <point x="972" y="624" type="line"></point>
      <point x="1150" y="624" type="line"></point>
      <point x="1347" y="1288" type="line"></point>
      <point x="1347" y="624" type="line"></point>
      <point x="1474" y="624" type="line"></point>
      <point x="1474" y="1413" type="line"></point>
      <point x="1245" y="1413" type="line"></point>
      <point x="1061" y="758" type="line"></point>
      <point x="877" y="1413" type="line"></point>
      <point x="648" y="1413" type="line"></point>
    </contour>
    <contour>
      <point x="194" y="624" type="line"></point>
      <point x="329" y="624" type="line"></point>
      <point x="329" y="1310" type="line"></point>
      <point x="538" y="1310" type="line"></point>
      <point x="538" y="1413" type="line"></point>
      <point x="-11" y="1413" type="line"></point>
      <point x="-11" y="1310" type="line"></point>
      <point x="194" y="1310" type="line"></point>
    </contour>
  </outline>
</glyph>
<glyph name="uni2206" format="1">
  <advance width="1092"></advance>
  <unicode hex="2206"></unicode>
  <outline>
    <contour>
      <point x="256" y="253" type="line"></point>
      <point x="546" y="1036" type="line"></point>
      <point x="836" y="253" type="line"></point>
    </contour>
    <contour>
      <point x="70" y="143" type="line"></point>
      <point x="1022" y="143" type="line"></point>
      <point x="546" y="1326" type="line"></point>
    </contour>
  </outline>
</glyph>
<glyph name="lessequal" format="1">
  <advance width="1008"></advance>
  <unicode hex="2264"></unicode>
  <outline>
    <contour>
      <point x="766" y="240" type="line"></point>
      <point x="848" y="350" type="line"></point>
      <point x="317" y="743" type="line"></point>
      <point x="848" y="1156" type="line"></point>
      <point x="766" y="1266" type="line"></point>
      <point x="111" y="743" type="line"></point>
    </contour>
    <contour>
      <point x="133" y="36" type="line"></point>
      <point x="890" y="36" type="line"></point>
      <point x="890" y="180" type="line"></point>
      <point x="133" y="180" type="line"></point>
    </contour>
  </outline>
</glyph>
<glyph name="greaterequal" format="1">
  <advance width="1008"></advance>
  <unicode hex="2265"></unicode>
  <outline>
    <contour>
      <point x="235" y="240" type="line"></point>
      <point x="890" y="743" type="line"></point>
      <point x="235" y="1266" type="line"></point>
      <point x="153" y="1156" type="line"></point>
      <point x="684" y="743" type="line"></point>
      <point x="153" y="350" type="line"></point>
    </contour>
    <contour>
      <point x="111" y="36" type="line"></point>
      <point x="868" y="36" type="line"></point>
      <point x="868" y="180" type="line"></point>
      <point x="111" y="180" type="line"></point>
    </contour>
  </outline>
</glyph>
<glyph name="ffi" format="1">
  <advance width="1920"></advance>
  <unicode hex="FB03"></unicode>
  <outline>
    <contour>
      <point x="165" y="0" type="line"></point>
      <point x="355" y="0" type="line"></point>
      <point x="355" y="1064" type="line"></point>
      <point x="870" y="1064" type="line"></point>
      <point x="870" y="0" type="line"></point>
      <point x="1060" y="0" type="line"></point>
      <point x="1060" y="1064" type="line"></point>
      <point x="1576" y="1064" type="line"></point>
      <point x="1576" y="0" type="line"></point>
      <point x="1758" y="0" type="line"></point>
      <point x="1758" y="1169" type="line"></point>
      <point x="1060" y="1169" type="line"></point>
      <point x="1060" y="1332"></point>
      <point x="1010" y="1516"></point>
      <point x="1225" y="1516" type="curve" smooth="yes"></point>
      <point x="1284" y="1516"></point>
      <point x="1338" y="1480"></point>
      <point x="1380" y="1442" type="curve"></point>
      <point x="1443" y="1567" type="line"></point>
      <point x="1378" y="1615"></point>
      <point x="1282" y="1659"></point>
      <point x="1201" y="1659" type="curve" smooth="yes"></point>
      <point x="897" y="1659"></point>
      <point x="870" y="1421"></point>
      <point x="870" y="1169" type="curve"></point>
      <point x="355" y="1169" type="line"></point>
      <point x="355" y="1332"></point>
      <point x="305" y="1516"></point>
      <point x="520" y="1516" type="curve" smooth="yes"></point>
      <point x="579" y="1516"></point>
      <point x="633" y="1480"></point>
      <point x="675" y="1442" type="curve"></point>
      <point x="738" y="1567" type="line"></point>
      <point x="673" y="1615"></point>
      <point x="577" y="1659"></point>
      <point x="496" y="1659" type="curve" smooth="yes"></point>
      <point x="192" y="1659"></point>
      <point x="165" y="1421"></point>
      <point x="165" y="1169" type="curve"></point>
      <point x="-25" y="1169" type="line"></point>
      <point x="-25" y="1064" type="line"></point>
      <point x="165" y="1064" type="line"></point>
    </contour>
    <contour>
      <point x="1671" y="1347" type="curve" smooth="yes"></point>
      <point x="1736" y="1347"></point>
      <point x="1779" y="1400"></point>
      <point x="1779" y="1462" type="curve" smooth="yes"></point>
      <point x="1779" y="1524"></point>
      <point x="1736" y="1577"></point>
      <point x="1671" y="1577" type="curve" smooth="yes"></point>
      <point x="1608" y="1577"></point>
      <point x="1559" y="1524"></point>
      <point x="1559" y="1462" type="curve" smooth="yes"></point>
      <point x="1559" y="1399"></point>
      <point x="1607" y="1347"></point>
    </contour>
  </outline>
</glyph>
<glyph name=".notdef" format="1">
  <advance width="1068"></advance>
  <outline>
    <contour>
      <point x="325" y="68" type="line"></point>
      <point x="325" y="1297" type="line"></point>
      <point x="733" y="1297" type="line"></point>
      <point x="733" y="68" type="line"></point>
    </contour>
    <contour>
      <point x="257" y="0" type="line"></point>
      <point x="801" y="0" type="line"></point>
      <point x="801" y="1365" type="line"></point>
      <point x="257" y="1365" type="line"></point>
    </contour>
  </outline>
</glyph>
